<?xml version="1.0" standalone="no"?><!DOCTYPE svg PUBLIC "-//W3C//DTD SVG 1.1//EN" "http://www.w3.org/Graphics/SVG/1.1/DTD/svg11.dtd"><svg t="1609903355596" class="icon" viewBox="0 0 1024 1024" version="1.1" xmlns="http://www.w3.org/2000/svg" p-id="2013" xmlns:xlink="http://www.w3.org/1999/xlink" width="200" height="200"><defs><style type="text/css"></style></defs><path d="M766.398359 548.693333c0 41.419487-22.475487 184.109949-22.475487 184.109949s-127.527385-142.690462-127.527385-184.109949a75.014564 75.014564 0 0 1 150.002872 0" fill="#E63F4A" p-id="2014"></path><path d="M695.729231 473.915077a74.988308 74.988308 0 0 1 51.370666 71.141744c0 32.991179-14.244103 130.166154-20.046769 168.36923 10.213744 11.92041 16.869744 19.377231 16.869744 19.377231s22.475487-142.677333 22.475487-184.109949a74.935795 74.935795 0 0 0-70.669128-74.778256" fill="#FFFFFF" p-id="2015"></path><path d="M691.396923 466.405744a82.28759 82.28759 0 0 0-82.274461 82.287589c0 17.696821 17.723077 48.508718 49.099487 90.820923 5.12 6.866051 10.528821 13.96841 16.200205 21.241436a1625.271795 1625.271795 0 0 0 44.045128 53.825641l7.574974 8.835282 12.471795 14.230975a7.273026 7.273026 0 0 0 12.603077-3.715282l3.518359-22.987487c2.625641-17.565538 5.26441-35.774359 7.732513-53.668103l1.929846-14.244103 0.918975-6.918564c5.369436-41.117538 8.454564-71.574974 8.454564-87.420718a82.28759 82.28759 0 0 0-82.274462-82.287589z m0 14.546051a67.741538 67.741538 0 0 1 67.741539 67.741538c0 14.073436-2.70441 41.485128-7.417436 78.296616l-0.932103 7.246769-1.851077 13.902769-0.984615 7.154872c-1.837949 13.377641-3.780923 26.925949-5.737026 40.251077l-3.111384 20.742564-6.997334-8.139487-2.573128-3.019487a1611.040821 1611.040821 0 0 1-43.638154-53.32677c-4.201026-5.382564-8.270769-10.673231-12.156718-15.832615l-3.820308-5.12c-29.144615-39.292718-46.250667-69.028103-46.250666-82.156308a67.741538 67.741538 0 0 1 67.72841-67.741538z" fill="#000000" p-id="2016"></path><path d="M278.186667 548.693333c0 41.419487 22.475487 184.109949 22.475487 184.109949s127.527385-142.690462 127.527384-184.109949a75.014564 75.014564 0 0 0-150.002871 0" fill="#E63F4A" p-id="2017"></path><path d="M288.557949 548.693333a74.962051 74.962051 0 0 1 70.459077-74.778256c-1.522872-0.078769-3.019487-0.236308-4.542359-0.236308a75.014564 75.014564 0 0 0-75.014564 75.014564c0 41.419487 22.475487 184.109949 22.475487 184.109949s2.888205-3.242667 7.732513-8.795897c-4.857436-31.625846-21.110154-140.077949-21.110154-175.314052" fill="#FFFFFF" p-id="2018"></path><path d="M353.188103 466.405744a82.28759 82.28759 0 0 0-82.274462 82.287589c0 15.36 2.888205 44.465231 7.981949 83.718564l0.472615 3.702154c0.905846 6.852923 1.837949 13.915897 2.848821 21.162667 1.837949 13.417026 3.794051 27.017846 5.763282 40.382359l3.557743 23.762051 1.929846 12.51118a7.273026 7.273026 0 0 0 12.603077 3.715282l5.540103-6.262154 9.386667-10.830769 5.12-5.973334a1625.271795 1625.271795 0 0 0 44.045128-53.825641c5.671385-7.273026 11.080205-14.375385 16.187077-21.241436l4.201025-5.697641c28.763897-39.384615 44.91159-68.24041 44.91159-85.123282a82.28759 82.28759 0 0 0-82.274461-82.287589z m0 14.546051a67.741538 67.741538 0 0 1 67.741538 67.741538c0 12.839385-16.357744 41.550769-44.333949 79.543795l-1.929846 2.599385c-5.028103 6.787282-10.371282 13.784615-15.977025 20.965743a1611.040821 1611.040821 0 0 1-43.638154 53.339898l-9.58359 11.132718-1.129026-7.496205c-1.969231-13.128205-3.938462-26.610872-5.842051-40.067282l-2.848821-20.571898-2.783179-21.149538c-4.726154-36.811487-7.404308-64.223179-7.404308-78.296616a67.741538 67.741538 0 0 1 67.741539-67.741538z" fill="#000000" p-id="2019"></path><path d="M523.001436 15.36l-116.630974 202.003692h233.24882z" fill="#E7444F" p-id="2020"></path><path d="M516.699897 11.723487L400.068923 213.727179a7.273026 7.273026 0 0 0 6.301539 10.896411h233.24882a7.273026 7.273026 0 0 0 6.301539-10.896411L529.302974 11.723487a7.273026 7.273026 0 0 0-12.603077 0z m6.301539 18.182564l104.027897 180.184616H418.973538l104.027898-180.184616z" fill="#000000" p-id="2021"></path><path d="M366.106256 614.308103l63.041641 235.165538 49.099488-59.995897 39.988512 135.745641 50.91118-147.272206 44.845949 96.978052 56.372512-244.644103-59.392-98.409025z" fill="#EEDB25" p-id="2022"></path><path d="M618.758564 847.661949l-44.845949-96.99118-50.911179 147.298462-40.001641-135.771898-49.099487 59.995898-56.713846-211.626667-11.080206 3.741539 63.028513 235.165538 49.099487-59.995897 40.001641 135.745641 50.91118-147.272206 44.859077 96.978052 56.359384-244.644103-1.102769-1.82482z" fill="#F3BA31" p-id="2023"></path><path d="M608.649846 524.983795L363.782564 607.402667a7.273026 7.273026 0 0 0-4.699897 8.782769l63.028512 235.178667 0.275693 0.827076a7.273026 7.273026 0 0 0 12.379897 1.890462l40.382359-49.362051 36.102564 122.564923 0.315077 0.853333c2.507487 5.947077 11.329641 5.868308 13.548308-0.525128l45.003487-130.231795 37.284103 80.60718a7.273026 7.273026 0 0 0 13.679589-1.417847l56.372513-244.644102a7.273026 7.273026 0 0 0-0.866461-5.395692l-59.392-98.409026a7.273026 7.273026 0 0 0-8.533334-3.150769z m-0.892718 15.635692l54.862769 90.899692-50.937435 221.078975-35.931898-77.705846-0.433231-0.800821a7.273026 7.273026 0 0 0-13.036307 1.483487l-43.493744 125.794462-33.56882-113.952821-0.315077-0.853333a7.273026 7.273026 0 0 0-12.301129-1.706667l-40.119794 49.020718-57.593436-214.869333 232.868102-78.375385z" fill="#000000" p-id="2024"></path><path d="M670.943179 652.484923H375.046564a34.487795 34.487795 0 0 1-34.487795-34.474667V251.851487a34.487795 34.487795 0 0 1 34.487795-34.487795h295.909744a34.487795 34.487795 0 0 1 34.487795 34.487795v366.145641a34.487795 34.487795 0 0 1-34.500924 34.487795" fill="#FCFEFF" p-id="2025"></path><path d="M670.943179 217.363692h-35.643076a34.487795 34.487795 0 0 1 34.487794 34.487795v366.145641a34.487795 34.487795 0 0 1-34.487794 34.487795h35.643076a34.487795 34.487795 0 0 0 34.500924-34.487795v-366.145641a34.487795 34.487795 0 0 0-34.500924-34.487795" fill="#ADB3B1" p-id="2026"></path><path d="M679.988513 238.421333h-7.876923c4.201026 0 7.614359 13.955282 7.614359 31.153231v330.699487c0 17.197949-3.413333 31.153231-7.614359 31.153231h7.876923c4.227282 0 7.640615-13.955282 7.640615-31.153231v-330.699487c0-17.197949-3.413333-31.153231-7.640615-31.153231" fill="#FCFEFF" p-id="2027"></path><path d="M670.943179 210.090667H375.046564a41.760821 41.760821 0 0 0-41.747692 41.747692v366.171897a41.760821 41.760821 0 0 0 41.747692 41.747693h295.909744a41.760821 41.760821 0 0 0 41.747692-41.747693V251.851487a41.760821 41.760821 0 0 0-41.747692-41.76082z m-295.896615 14.546051h295.909744c15.018667 0 27.214769 12.182974 27.214769 27.214769v366.145641a27.214769 27.214769 0 0 1-27.227898 27.214769H375.046564a27.214769 27.214769 0 0 1-27.214769-27.201641V251.851487c0-15.031795 12.182974-27.214769 27.214769-27.214769z" fill="#000000" p-id="2028"></path><path d="M571.181949 370.044718a48.180513 48.180513 0 1 1-96.361026 0 48.180513 48.180513 0 0 1 96.361026 0" fill="#417EC6" p-id="2029"></path><path d="M523.001436 282.282667a87.775179 87.775179 0 1 0 0 175.524102 87.775179 87.775179 0 0 0 0-175.524102z m0 14.546051a73.216 73.216 0 1 1 0 146.432 73.216 73.216 0 0 1 0-146.432z" fill="#000000" p-id="2030"></path><path d="M531.31159 729.166769h-16.620308a14.178462 14.178462 0 0 1-14.19159-14.19159V571.063795c0-7.837538 6.354051-14.19159 14.178462-14.19159h16.633436c7.837538 0 14.178462 6.354051 14.178461 14.19159v143.911384a14.178462 14.178462 0 0 1-14.178461 14.178462" fill="#F34A51" p-id="2031"></path><path d="M514.139897 566.114462c3.72841 0 6.80041 2.809436 7.220513 6.43282l0.052513 0.840205v36.168205a7.273026 7.273026 0 0 1-14.506667 0.853334l-0.039384-0.853334v-36.168205c0-4.017231 3.255795-7.273026 7.273025-7.273025zM514.139897 623.012103c3.72841 0 6.80041 2.809436 7.220513 6.43282l0.052513 0.840205v81.604923a7.273026 7.273026 0 0 1-14.506667 0.853334l-0.039384-0.853334V630.285128c0-4.017231 3.255795-7.273026 7.273025-7.273025z" fill="#FFFFFF" p-id="2032"></path><path d="M531.31159 549.599179h-16.620308c-11.854769 0-21.464615 9.609846-21.464615 21.464616v143.911384c0 11.854769 9.609846 21.464615 21.464615 21.464616h16.620308c11.854769 0 21.464615-9.609846 21.464615-21.464616V571.063795c0-11.854769-9.609846-21.464615-21.464615-21.464616z m-16.620308 14.546052h16.620308c3.820308 0 6.918564 3.098256 6.918564 6.918564v143.911384a6.918564 6.918564 0 0 1-6.918564 6.918565h-16.620308a6.918564 6.918564 0 0 1-6.918564-6.918565V571.063795c0-3.807179 3.098256-6.918564 6.918564-6.918564z" fill="#000000" p-id="2033"></path><path d="M502.678974 328.769641a7.273026 7.273026 0 0 1 7.627488 12.366769l-1.877334 1.129026a43.218051 43.218051 0 0 0-6.866051 5.395692c-3.741538 3.623385-6.249026 7.522462-7.102359 11.474051a7.273026 7.273026 0 1 1-14.217846-3.085128c1.549128-7.115487 5.553231-13.364513 11.185231-18.825846 4.174769-4.043487 8.310154-6.866051 11.264-8.454564z" fill="#FFFFFF" p-id="2034"></path><path d="M941.042872 215.69641a15.753846 15.753846 0 1 1-31.507693 0 15.753846 15.753846 0 0 1 31.507693 0" fill="#378BCB" p-id="2035"></path><path d="M599.197538 997.572923a15.753846 15.753846 0 1 1-31.507692-0.013128 15.753846 15.753846 0 0 1 31.507692 0M215.105641 738.002051l5.815795 10.646975c1.90359 3.478974 4.765538 6.340923 8.244513 8.244512l10.646974 5.815795-10.646974 5.828923a20.768821 20.768821 0 0 0-8.244513 8.244513l-5.815795 10.646975-5.828923-10.633847a20.834462 20.834462 0 0 0-8.244513-8.270769l-10.646974-5.815795 10.646974-5.815795c3.478974-1.90359 6.340923-4.765538 8.244513-8.244512l5.828923-10.633847z" fill="#E84756" p-id="2036"></path><path d="M599.197538 7.036718l5.828924 10.660103c1.90359 3.465846 4.765538 6.327795 8.244512 8.231384l10.646975 5.815795-10.646975 5.828923a20.768821 20.768821 0 0 0-8.244512 8.244513l-5.828924 10.660102-5.815794-10.660102a20.768821 20.768821 0 0 0-8.244513-8.244513l-10.646975-5.828923 10.646975-5.815795a20.742564 20.742564 0 0 0 8.244513-8.231384l5.815794-10.660103zM189.479385 102.203077l5.828923 10.633846c1.890462 3.492103 4.75241 6.354051 8.231384 8.257641l10.646975 5.815795-10.633846 5.815795a20.768821 20.768821 0 0 0-8.244513 8.257641l-5.828923 10.633846-5.815795-10.633846a20.834462 20.834462 0 0 0-8.257641-8.257641l-10.633846-5.815795 10.633846-5.815795c3.478974-1.90359 6.340923-4.765538 8.257641-8.244513l5.815795-10.646974z" fill="#FCFCFC" p-id="2037"></path><path d="M107.047385 468.151795a27.096615 27.096615 0 1 0 0 54.193231 27.096615 27.096615 0 0 0 0-54.180103z m0 14.559179a12.550564 12.550564 0 1 1 0 25.088 12.550564 12.550564 0 0 1 0-25.088z" fill="#3B84C5" p-id="2038"></path></svg>