<?xml version="1.0" standalone="no"?><!DOCTYPE svg PUBLIC "-//W3C//DTD SVG 1.1//EN" "http://www.w3.org/Graphics/SVG/1.1/DTD/svg11.dtd"><svg t="1609905045458" class="icon" viewBox="0 0 1672 1024" version="1.1" xmlns="http://www.w3.org/2000/svg" p-id="1450" xmlns:xlink="http://www.w3.org/1999/xlink" width="326.5625" height="200"><defs><style type="text/css"></style></defs><path d="M1365.497519 1019.385519c-163.71038 0-296.89519-133.197772-296.89519-296.89519 0-163.71038 133.18481-296.882228 296.882228-296.882228 163.71038 0 296.89519 133.18481 296.89519 296.882228 0 163.71038-133.18481 296.89519-296.882228 296.89519z m0-478.557975c-100.170532 0-181.675747 81.492253-181.675747 181.662785 0 100.170532 81.505215 181.675747 181.675747 181.675747s181.662785-81.505215 181.662785-181.675747-81.492253-181.662785-181.675747-181.662785z" fill="#6D6E71" p-id="1451"></path><path d="M300.122734 1019.385519C136.425316 1019.385519 3.240506 886.187747 3.240506 722.490329s133.18481-296.882228 296.882228-296.882228c163.71038 0 296.89519 133.18481 296.89519 296.882228 0 163.71038-133.18481 296.89519-296.89519 296.89519z m0-478.557975c-100.170532 0-181.662785 81.492253-181.662785 181.662785 0 100.170532 81.492253 181.675747 181.662785 181.675747 100.183494 0 181.675747-81.505215 181.675747-181.675747s-81.505215-181.662785-181.675747-181.662785z" fill="#808285" p-id="1452"></path><path d="M1419.626937 699.975291L1208.475544 119.833924h85.147545a57.616203 57.616203 0 0 0 0-115.219443H1126.20557c-39.987848 0-67.77843 39.819342-54.129418 77.318481l46.533671 127.87038H620.466228V62.230684a57.616203 57.616203 0 0 0-115.219443 0v189.738126L250.218937 693.688709c-22.165063 38.380557 5.638481 86.404861 49.890835 86.404861h417.143899a57.616203 57.616203 0 0 0 57.60324-57.603241c0-18.043139 9.721519-34.867848 25.353722-43.876456a57.616203 57.616203 0 0 0 21.128101-78.718379l-52.729519-91.317469 224.670785-183.542278h167.274937l150.800202 414.331139c26.183291 71.926278 134.416203 32.430987 108.271798-39.404557z m-749.593924-35.088202h-270.128608L562.837063 382.638987 697.927291 616.603544a166.860152 166.860152 0 0 0-27.90724 48.296507z m40.208202-257.399899l-47.609519-82.451443h148.54481l-100.935291 82.438481z" fill="#FF5E5B" p-id="1453"></path><path d="M1419.626937 699.975291L1208.475544 119.833924h85.147545a57.616203 57.616203 0 0 0 0-115.219443H1126.20557c-39.987848 0-67.77843 39.819342-54.129418 77.318481l46.533671 127.87038H832.810127V456.133671L993.28 325.022785h167.261975l150.800202 414.344101c26.196253 71.926278 134.416203 32.430987 108.28476-39.404557z" fill="#FF423D" p-id="1454"></path><path d="M666.533266 119.846886H459.192709a57.616203 57.616203 0 0 1 0-115.232405h207.340557a57.616203 57.616203 0 0 1 0 115.232405zM825.603241 888.443139c-169.763646 0-228.740861-225.604051-82.931038-309.649823 109.399494-63.61762 248.870886 15.632203 248.870886 143.697013 0 91.511899-74.440911 165.95281-165.939848 165.95281z m0-216.686177c-9.02157 0-17.498734 2.268354-25.198178 6.740253a50.875949 50.875949 0 0 0-25.548152 43.993114 50.785215 50.785215 0 0 0 50.733367 50.733367 50.785215 50.785215 0 0 0 50.733368-50.733367 50.772253 50.772253 0 0 0-50.720405-50.733367z" fill="#808285" p-id="1455"></path><path d="M991.543089 722.503291c0-89.100962-70.565266-161.98643-158.732962-165.784304v115.608304a50.772253 50.772253 0 0 1 43.526481 50.163038 50.772253 50.772253 0 0 1-43.526481 50.163038v115.608304c88.167696-3.797873 158.732962-76.683342 158.732962-165.771342z" fill="#6D6E71" p-id="1456"></path></svg>