<?xml version="1.0" standalone="no"?><!DOCTYPE svg PUBLIC "-//W3C//DTD SVG 1.1//EN" "http://www.w3.org/Graphics/SVG/1.1/DTD/svg11.dtd"><svg t="1609903331556" class="icon" viewBox="0 0 1192 1024" version="1.1" xmlns="http://www.w3.org/2000/svg" p-id="1512" xmlns:xlink="http://www.w3.org/1999/xlink" width="232.8125" height="200"><defs><style type="text/css"></style></defs><path d="M597.496358 119.364776c-223.369552 0-404.434149 115.757851-404.434149 258.567642 0 103.469851 95.094448 192.710687 232.402149 234.052776-54.883343 72.704-141.388418 122.314507-240.013373 137.185433 0.259821 0.061134 0.519642 0.122269 0.779463 0.152836 158.33791 30.704716 308.269851-18.034627 384.81003-113.404179 8.757493 0.351522 17.560836 0.611343 26.440597 0.611343 223.369552 0 404.434149-115.788418 404.434149-258.598209 0-142.809791-181.064597-258.582925-404.418866-258.582925" fill="#3A81C3" p-id="1513"></path><path d="M580.562149 102.415284c-227.465552 0-412.901254 118.57003-412.901253 267.050029l0.030567 3.163702c1.788179 100.015761 88.49194 188.675821 221.413253 233.563701l5.196418 1.711762-0.947582 1.161552c-53.798209 65.184478-134.648358 109.476299-226.105313 123.262089-9.032597 1.375522-9.64394 13.862209-1.375523 16.429851l1.742329 0.412657 5.058865 0.947582c152.912239 28.152358 302.309254-16.353433 383.128836-111.432597l2.185553-2.628776 5.196417 0.183403c6.098149 0.183403 11.798925 0.275104 17.377433 0.275104C808.012418 636.515343 993.432836 517.960597 993.432836 369.465313S808.012418 102.415284 580.562149 102.415284z m0 16.934209c219.258269 0 395.951761 112.976239 395.951761 250.11582 0 137.139582-176.693493 250.115821-395.951761 250.115821-8.100299 0-16.536836-0.198687-26.104358-0.611343a8.467104 8.467104 0 0 0-6.95403 3.163702l-2.353671 2.90388c-68.118925 82.378507-191.197612 126.120119-323.15606 114.672717l-5.349254-0.489075 2.338388-0.626627c80.040119-22.237612 149.366448-67.782687 196.302329-129.986866a8.467104 8.467104 0 0 0-4.309971-13.205015c-137.491104-41.38794-226.380418-129.146269-226.380418-225.937194 0-137.139582 176.693493-250.115821 395.967045-250.11582z" fill="#000000" p-id="1514"></path><path d="M325.830687 204.463761a8.467104 8.467104 0 1 1 9.017313 14.320717 352.240716 352.240716 0 0 0-102.950209 98.487403 8.467104 8.467104 0 0 1-13.923343-9.628657 369.159642 369.159642 0 0 1 107.856239-103.179463zM460.998687 149.091343a8.467104 8.467104 0 1 1 3.882029 16.475702 456.06209 456.06209 0 0 0-78.129671 25.81397 8.467104 8.467104 0 1 1-6.770627-15.528119 472.919881 472.919881 0 0 1 81.018269-26.761553zM570.734806 134.52609a573.317731 573.317731 0 0 1 69.647284 1.467223l5.593791 0.504359 5.043582 0.534925 6.419104 0.794746 0.611343 0.091702a8.467104 8.467104 0 1 1-2.537074 16.735522l-4.187702-0.534925-4.539224-0.519642a396.67009 396.67009 0 0 0-7.840477-0.733612 556.505791 556.505791 0 0 0-67.568717-1.406089 8.467104 8.467104 0 1 1-0.64191-16.934209z" fill="#FFFFFF" p-id="1515"></path><path d="M882.015522 396.67009c151.078209 0 273.560836 78.313075 273.560836 174.905313 0 69.998806-64.328597 130.368955-157.206925 158.322627 37.139104 49.182567 95.644657 82.745313 162.357492 92.786627l-0.534925 0.122268c-107.09206 20.755104-208.51391-12.196299-260.279403-76.723582-5.93003 0.244537-11.890627 0.412657-17.897075 0.412657-151.093493 0-273.576119-78.313075-273.576119-174.920597 0-96.592239 122.482627-174.905313 273.576119-174.905313" fill="#E7444F" p-id="1516"></path><path d="M882.015522 388.202985c-155.189493 0-282.043224 81.10997-282.043223 183.372418 0 102.277731 126.853731 183.387701 282.043223 183.387701l2.812179-0.015283 5.838329-0.091702 5.349254-0.152835 1.681194 1.956298c56.136597 64.93994 159.10209 94.80406 264.100298 74.461612l0.794746-0.168119c9.124299-2.063284 8.650507-15.237731-0.611343-16.643821l-4.187701-0.657194c-57.160597-9.536955-107.810388-36.925134-142.855642-76.830567l-2.277254-2.613493 2.827463-0.962866c90.096716-31.36191 148.556418-92.557373 148.556418-161.669731 0-102.262448-126.853731-183.372418-282.027941-183.372418z m0 16.934209c146.982209 0 265.093731 75.516179 265.093732 166.438209 0 64.068776-59.223881 122.528478-151.185194 150.207045a8.467104 8.467104 0 0 0-4.30997 13.220298l2.445373 3.163702c28.763701 36.741731 69.081791 64.649552 115.589731 80.697313l3.622209 1.222687-0.59606 0.030567c-84.869731 4.30997-162.984119-25.523582-206.175522-79.321791a8.467104 8.467104 0 0 0-6.938746-3.178985l-6.296836 0.229254c-4.004299 0.122269-7.687642 0.183403-11.248717 0.183403-146.997493 0-265.109015-75.531463-265.109015-166.438209 0-90.937313 118.111522-166.453493 265.109015-166.453493z" fill="#000000" p-id="1517"></path><path d="M717.61003 467.891582a8.467104 8.467104 0 1 1 8.849194 14.442985c-25.065075 15.36-50.007881 34.128239-74.690866 56.595105a8.467104 8.467104 0 0 1-11.401552-12.532538c25.462448-23.16991 51.245851-42.595343 77.243224-58.505552zM817.335403 424.073552a8.467104 8.467104 0 1 1 4.432239 16.353433 345.424239 345.424239 0 0 0-59.865791 22.528 8.467104 8.467104 0 0 1-7.351403-15.253015 362.343164 362.343164 0 0 1 62.784955-23.628418zM881.129075 413.619582c20.556418-1.115701 38.805015 0.091701 54.378985 2.812179l3.973731 0.748896c4.982448 0.978149 8.635224 1.925731 10.851343 2.644059a8.467104 8.467104 0 0 1-5.211701 16.108896l-2.109134-0.59606-0.871165-0.21397a133.624358 133.624358 0 0 0-9.552238-2.002149c-14.336-2.506507-31.31606-3.637493-50.542806-2.598209a8.467104 8.467104 0 1 1-0.917015-16.903642z" fill="#FFFFFF" p-id="1518"></path><path d="M770.812179 586.645015a33.348776 33.348776 0 1 1-66.697552 0 33.348776 33.348776 0 0 1 66.697552 0" fill="#FFFFFF" p-id="1519"></path><path d="M737.463403 544.829134a41.815881 41.815881 0 1 0 0 83.616478 41.815881 41.815881 0 0 0 0-83.616478z m0 16.934209a24.881672 24.881672 0 1 1 0 49.74806 24.881672 24.881672 0 0 1 0-49.74806z" fill="#000000" p-id="1520"></path><path d="M868.886925 586.645015a33.348776 33.348776 0 1 1-66.682268 0 33.348776 33.348776 0 0 1 66.682268 0" fill="#FFFFFF" p-id="1521"></path><path d="M835.553433 544.829134a41.815881 41.815881 0 1 0 0 83.616478 41.815881 41.815881 0 0 0 0-83.616478z m0 16.934209a24.881672 24.881672 0 1 1 0 49.74806 24.881672 24.881672 0 0 1 0-49.74806z" fill="#000000" p-id="1522"></path><path d="M966.961672 586.645015a33.348776 33.348776 0 1 1-66.682269 0 33.348776 33.348776 0 0 1 66.682269 0" fill="#FFFFFF" p-id="1523"></path><path d="M933.612896 544.829134a41.815881 41.815881 0 1 0 0.015283 83.616478 41.815881 41.815881 0 0 0 0-83.616478z m0 16.934209a24.881672 24.881672 0 1 1 0 49.74806 24.881672 24.881672 0 0 1 0-49.74806z" fill="#000000" p-id="1524"></path><path d="M1065.051701 586.645015a33.348776 33.348776 0 1 1-66.697552 0 33.348776 33.348776 0 0 1 66.697552 0" fill="#FFFFFF" p-id="1525"></path><path d="M1031.702925 544.829134a41.815881 41.815881 0 1 0 0 83.616478 41.815881 41.815881 0 0 0 0-83.616478z m0 16.934209a24.881672 24.881672 0 1 1 0 49.74806 24.881672 24.881672 0 0 1 0-49.74806z" fill="#000000" p-id="1526"></path><path d="M931.534328 1012.445612a18.340299 18.340299 0 1 1 0-36.711164 18.340299 18.340299 0 0 1 0 36.711164" fill="#378BCB" p-id="1527"></path><path d="M21.29003 614.476418a18.340299 18.340299 0 1 1 0-36.711164 18.340299 18.340299 0 0 1 0 36.711164M323.477015 167.309373l-12.394985 6.785911a24.102209 24.102209 0 0 0-9.59809 9.582806l-6.78591 12.379701-6.785911-12.379701a24.041075 24.041075 0 0 0-9.582806-9.582806l-12.394985-6.785911 12.379702-6.78591c4.050149-2.200836 7.397254-5.54794 9.598089-9.59809l6.785911-12.379701 6.78591 12.379701c2.216119 4.050149 5.54794 7.397254 9.59809 9.59809l12.379701 6.78591z" fill="#E84756" p-id="1528"></path><path d="M1174.436299 614.476418l-12.379702 6.770627a24.178627 24.178627 0 0 0-9.613373 9.598089l-6.770627 12.379702-6.78591-12.379702a24.117493 24.117493 0 0 0-9.59809-9.598089l-12.379701-6.770627 12.379701-6.785911c4.050149-2.216119 7.38197-5.54794 9.59809-9.598089l6.78591-12.379702 6.770627 12.379702c2.231403 4.050149 5.54794 7.38197 9.598089 9.598089l12.394986 6.785911zM1063.660896 137.475821l-12.394986 6.78591a24.117493 24.117493 0 0 0-9.598089 9.59809l-6.770627 12.379701-6.78591-12.379701a24.14806 24.14806 0 0 0-9.59809-9.59809l-12.379701-6.78591 12.379701-6.785911c4.050149-2.216119 7.38197-5.532657 9.59809-9.598089l6.78591-12.379702 6.770627 12.379702c2.216119 4.065433 5.54794 7.38197 9.598089 9.598089l12.379702 6.785911z" fill="#FCFCFC" p-id="1529"></path><path d="M606.070448 9.964896a31.545313 31.545313 0 1 0 0 63.10591 31.545313 31.545313 0 0 0 0-63.10591z m0 16.934208a14.611104 14.611104 0 1 1 0 29.222209 14.611104 14.611104 0 0 1 0-29.222209z" fill="#3B84C5" p-id="1530"></path></svg>