<?xml version="1.0" standalone="no"?><!DOCTYPE svg PUBLIC "-//W3C//DTD SVG 1.1//EN" "http://www.w3.org/Graphics/SVG/1.1/DTD/svg11.dtd"><svg t="1609903324926" class="icon" viewBox="0 0 1157 1024" version="1.1" xmlns="http://www.w3.org/2000/svg" p-id="1333" xmlns:xlink="http://www.w3.org/1999/xlink" width="225.9765625" height="200"><defs><style type="text/css"></style></defs><path d="M463.857159 946.888348c-26.861449 37.398261-54.880464 63.22087-62.553043 57.729855-7.68742-5.535536 7.865507-40.321855 34.726956-77.720116 26.87629-37.38342 54.880464-63.22087 62.567885-57.700174 7.68742 5.520696-7.865507 40.307014-34.726957 77.690435" fill="#2984BD" p-id="1334"></path><path d="M413.636638 914.624928l-3.339131 4.719304c-28.434551 40.559304-43.052522 74.737159-29.517913 84.47258 13.801739 9.898667 42.340174-16.012986 72.332986-57.240116l1.691826-2.344812c30.616116-42.592464 46.925913-79.085449 32.871884-89.177043-14.054029-10.091594-43.408696 16.977623-74.039652 59.584927z m62.345275-43.334493l-0.222609 1.024c-0.920116 3.487536-2.537739 7.895188-4.808347 12.955826-6.233043 13.935304-16.725333 31.580754-29.503073 49.359768-12.762899 17.779014-26.149101 33.346783-37.36858 43.705507l-1.721507 1.558261a80.64371 80.64371 0 0 1-9.023072 7.123478l-0.890435 0.534261 0.25229-0.994319c0.920116-3.502377 2.522899-7.895188 4.793507-12.970666 6.233043-13.920464 16.725333-31.580754 29.503072-49.359768 12.762899-17.779014 26.163942-33.346783 37.36858-43.690667 4.081159-3.769507 7.731942-6.693101 10.75942-8.681739l0.860754-0.549102z" fill="#000000" p-id="1335"></path><path d="M747.935536 939.423536c26.861449 37.398261 54.880464 63.22087 62.553044 57.715015 7.68742-5.520696-7.865507-40.307014-34.726957-77.705276-26.861449-37.398261-54.880464-63.22087-62.567884-57.700174-7.67258 5.520696 7.865507 40.307014 34.726957 77.690435" fill="#2984BD" p-id="1336"></path><path d="M691.808464 855.054841c-13.801739 9.913507 1.662145 45.219246 31.180058 86.817391l1.691826 2.359652c30.586435 42.577623 59.970783 69.676522 74.024811 59.584928 14.054029-10.106435-2.240928-46.569739-32.857043-89.191884l-3.398493-4.659942c-28.820406-39.134609-56.038029-63.680928-69.839768-55.429566l-0.801391 0.519421z m11.679536 16.250434l0.890435 0.549102c3.012638 1.988638 6.678261 4.912232 10.744579 8.681739 11.204638 10.343884 24.590841 25.911652 37.383421 43.690667 12.762899 17.779014 23.255188 35.439304 29.488232 49.359768l0.934956 2.137043c1.78087 4.170203 3.072 7.835826 3.858551 10.833623l0.237449 0.994319-0.875594-0.549101a87.55942 87.55942 0 0 1-10.74458-8.681739c-11.219478-10.343884-24.605681-25.911652-37.368579-43.690667-12.777739-17.779014-23.28487-35.424464-29.503073-49.359768a87.529739 87.529739 0 0 1-4.793507-12.955826l-0.25229-1.00916z" fill="#000000" p-id="1337"></path><path d="M984.464696 579.524638c0 195.999536-158.898087 354.897623-354.912464 354.897623-196.014377 0-354.912464-158.898087-354.912464-354.897623 0-196.029217 158.898087-354.927304 354.912464-354.927305 196.014377 0 354.912464 158.898087 354.912464 354.927305" fill="#DC4B4F" p-id="1338"></path><path d="M629.537391 224.597333c-5.268406 0-10.50713 0.178087-15.745855 0.400696 188.697971 8.251362 339.151768 163.795478 339.151768 354.526609 0 190.71629-150.453797 346.245565-339.151768 354.511768 5.238725 0.222609 10.477449 0.385855 15.760696 0.385855 196.014377 0 354.912464-158.898087 354.912464-354.897623 0-196.029217-158.898087-354.927304-354.912464-354.927305" fill="#C4333D" p-id="1339"></path><path d="M324.222145 333.452986a8.221681 8.221681 0 0 1 12.391884 10.803942 345.251246 345.251246 0 0 0-85.273971 227.713855c0 191.473159 155.232464 346.705623 346.705623 346.705623 92.902029 0 179.95687-36.700754 244.513391-100.915942a8.221681 8.221681 0 0 1 11.590493 11.649855 361.946899 361.946899 0 0 1-256.103884 105.709449c-200.570435 0-363.148986-162.593391-363.148985-363.148985 0-88.895072 32.085333-172.877913 89.34029-238.517797zM598.030841 208.851478c200.555594 0 363.134145 162.578551 363.134145 363.134145 0 45.530899-8.384928 89.919072-24.531479 131.457855a8.221681 8.221681 0 1 1-15.315478-5.951072 345.785507 345.785507 0 0 0 23.403594-125.506783c0-191.473159-155.232464-346.690783-346.675942-346.690782a345.043478 345.043478 0 0 0-194.678724 59.763014 8.221681 8.221681 0 0 1-9.245682-13.593971 361.486841 361.486841 0 0 1 203.909566-62.627246z" fill="#000000" p-id="1340"></path><path d="M598.030841 250.568348c177.523014 0 321.417275 143.894261 321.417275 321.417275 0 177.508174-143.894261 321.402435-321.417275 321.402435-177.508174 0-321.417275-143.894261-321.417276-321.402435 0-59.777855 16.354319-117.166377 46.792348-167.075246a8.221681 8.221681 0 0 1 14.039188 8.563014 303.415652 303.415652 0 0 0-44.373333 158.497392c0 168.44058 136.533333 304.973913 304.973913 304.973913 168.425739 0 304.959072-136.533333 304.959073-304.973913 0-168.425739-136.533333-304.973913-304.973913-304.973913a304.038957 304.038957 0 0 0-220.872348 94.682898 8.221681 8.221681 0 1 1-11.902145-11.338203 320.482319 320.482319 0 0 1 232.774493-99.773217z" fill="#000000" p-id="1341"></path><path d="M800.070493 580.207304c0 102.489043-83.092406 185.59629-185.58145 185.59629-102.518725 0-185.61113-83.107246-185.61113-185.59629 0-102.503884 83.107246-185.61113 185.61113-185.61113 102.489043 0 185.581449 83.107246 185.58145 185.61113" fill="#FEFEFE" p-id="1342"></path><path d="M737.947826 681.019362a8.221681 8.221681 0 0 1 12.970667 10.121276c-8.607536 11.026551-18.402319 21.103304-29.161739 30.037333a8.221681 8.221681 0 1 1-10.49229-12.659014 178.086957 178.086957 0 0 0 26.683362-27.499595z" fill="#000000" p-id="1343"></path><path d="M598.045681 378.152812c107.030261 0 193.817971 86.78771 193.817971 193.817971 0 23.03258-4.006957 45.486377-11.753739 66.634203a8.221681 8.221681 0 1 1-15.434203-5.654261c7.064116-19.337275 10.729739-39.891478 10.729739-60.965102 0-97.962667-79.397101-177.389449-177.359768-177.389449-97.977507 0-177.389449 79.411942-177.389449 177.389449 0 97.947826 79.411942 177.374609 177.389449 177.374609 27.603478 0 54.286841-6.307246 78.491826-18.268754a8.221681 8.221681 0 1 1 7.271884 14.736696 193.01658 193.01658 0 0 1-85.77855 19.97542c-107.045101 0-193.817971-86.77287-193.817971-193.817971s86.77287-193.817971 193.817971-193.817971z" fill="#000000" p-id="1344"></path><path d="M616.477681 571.985623a18.446841 18.446841 0 1 1-36.893681 0 18.446841 18.446841 0 0 1 36.893681 0" fill="#000000" p-id="1345"></path><path d="M603.373449 571.985623a5.342609 5.342609 0 1 1-10.670377-0.01484 5.342609 5.342609 0 0 1 10.670377 0" fill="#FFFFFF" p-id="1346"></path><path d="M598.030841 250.553507c4.229565 0 7.702261 3.175884 8.162318 7.271884l0.059363 0.949797v91.210203a8.221681 8.221681 0 0 1-16.384 0.964638l-0.059363-0.964638v-91.210203c0-4.541217 3.680464-8.221681 8.221682-8.221681zM911.226435 563.763942a8.221681 8.221681 0 0 1 0.964637 16.384l-0.964637 0.059362h-91.195363a8.221681 8.221681 0 0 1-0.964637-16.39884l0.964637-0.044522H911.211594zM376.06029 563.763942a8.221681 8.221681 0 0 1 0.949797 16.384l-0.964638 0.059362h-91.210203a8.221681 8.221681 0 0 1-0.949797-16.39884l0.949797-0.044522h91.210203zM598.030841 785.749333c4.229565 0 7.702261 3.175884 8.162318 7.271884l0.059363 0.949797v91.210203a8.221681 8.221681 0 0 1-16.384 0.949797l-0.059363-0.949797V793.971014c0-4.541217 3.680464-8.221681 8.221682-8.221681z" fill="#000000" p-id="1347"></path><path d="M378.924522 363.698087a8.221681 8.221681 0 1 1 12.03571 11.189797c-15.909101 17.126029-29.235942 36.448464-38.822957 57.937623a8.221681 8.221681 0 1 1-15.018666-6.707942c10.388406-23.240348 24.724406-44.046841 41.805913-62.419478zM424.678029 325.097739a8.221681 8.221681 0 1 1 8.399768 14.143073l-1.884754 1.172405a219.373449 219.373449 0 0 0-23.344231 17.986783 8.221681 8.221681 0 0 1-10.878145-12.317681c6.841507-6.040116 13.445565-11.234319 19.589565-15.582609l3.784348-2.626782c1.869913-1.246609 3.33913-2.181565 4.333449-2.775189z" fill="#FFFFFF" p-id="1348"></path><path d="M712.19942 467.775072l-109.434434 93.154319 10.462608 11.056232zM505.277217 570.442203l78.981566 9.765101 0.415536-15.211594z" fill="#000000" p-id="1349"></path><path d="M643.33913 180.758261h-83.047884a10.536812 10.536812 0 0 1-10.536811-10.551652v-2.374493a10.536812 10.536812 0 0 1 10.536811-10.536812h83.047884a10.536812 10.536812 0 0 1 10.551653 10.536812v2.374493a10.536812 10.536812 0 0 1-10.536812 10.536811" fill="#3C82C2" p-id="1350"></path><path d="M643.33913 149.058783h-83.047884c-10.358725 0-18.758493 8.414609-18.758492 18.773333v2.374493c0 10.358725 8.399768 18.773333 18.758492 18.773333h83.047884c10.388406 0 18.773333-8.414609 18.773334-18.773333v-2.374493c0-10.358725-8.399768-18.773333-18.773334-18.773333z m-83.047884 16.443362h83.047884c1.29113 0 2.329971 1.038841 2.329971 2.329971v2.374493c0 1.29113-1.038841 2.329971-2.329971 2.329971h-83.047884a2.329971 2.329971 0 0 1-2.31513-2.329971v-2.374493c0-1.29113 1.038841-2.329971 2.31513-2.329971z" fill="#000000" p-id="1351"></path><path d="M601.830029 180.758261v36.300058" fill="#3C82C2" p-id="1352"></path><path d="M453.88429 244.765681l-19.070145 10.091594-86.164406-162.949565a10.803942 10.803942 0 0 1 19.084986-10.091594l86.149565 162.949565z" fill="#F95357" p-id="1353"></path><path d="M349.302725 70.047536a19.025623 19.025623 0 0 0-7.92487 25.703884l86.164406 162.949566c2.122203 4.021797 7.108638 5.565217 11.130435 3.428173l19.055304-10.091594a8.221681 8.221681 0 0 0 3.428174-11.100753l-86.149565-162.949566a18.995942 18.995942 0 0 0-25.703884-7.93971z m11.160116 15.61229l82.305855 155.677681-4.541218 2.419015-82.305855-155.677681a2.56742 2.56742 0 0 1 4.199884-2.908754l0.341334 0.489739z" fill="#000000" p-id="1354"></path><path d="M477.050435 110.235826A111.452754 111.452754 0 0 0 417.613913 93.050435c-60.430841 0-109.553159 47.86087-111.838609 107.742608l171.26029-90.557217z" fill="#3C82C2" p-id="1355"></path><path d="M417.613913 84.828754c-64.660406 0-117.581913 51.170319-120.06029 115.637797a8.221681 8.221681 0 0 0 12.065391 7.583536l171.26029-90.542377a8.221681 8.221681 0 0 0 0.534261-14.246956 119.629913 119.629913 0 0 0-63.814493-18.432z m3.457855 16.502724a102.66713 102.66713 0 0 1 36.463304 7.999073l1.988638 0.860753-143.909101 76.087653 0.059362-0.281971a103.735652 103.735652 0 0 1 101.939942-84.72487l3.457855 0.059362z" fill="#000000" p-id="1356"></path><path d="M495.526957 140.926145l-175.415653 92.738783-16.918261-31.99629L478.608696 108.929855z" fill="#F95357" p-id="1357"></path><path d="M474.750145 101.657971L299.349333 194.411594a8.221681 8.221681 0 0 0-3.413333 11.100754l16.918261 31.99629c2.107362 4.006957 7.093797 5.550377 11.100753 3.413333l175.415653-92.723942a8.221681 8.221681 0 0 0 3.413333-11.115594l-16.918261-31.99629a8.221681 8.221681 0 0 0-11.115594-3.413333z m0.430377 18.372638l9.23084 17.467362-160.871884 85.051362-9.23084-17.452521 160.871884-85.066203z" fill="#000000" p-id="1358"></path><path d="M744.611246 244.765681l19.084986 10.091594 86.164406-162.949565a10.789101 10.789101 0 1 0-19.084986-10.091594l-86.164406 162.949565z" fill="#F95357" p-id="1359"></path><path d="M823.503768 77.987246l-86.149565 162.949566a8.221681 8.221681 0 0 0 3.413333 11.100753l19.084986 10.091594c4.006957 2.137043 8.978551 0.593623 11.115594-3.413333l86.164406-162.949565a19.010783 19.010783 0 1 0-33.628754-17.779015z m18.506203 6.945392c0.890435 0.75687 1.142725 2.062841 0.593623 3.131362l-82.335536 155.677681-4.541217-2.404174 82.320695-155.677681a2.56742 2.56742 0 0 1 3.472696-1.068522l0.489739 0.341334z" fill="#000000" p-id="1360"></path><path d="M721.459942 110.235826A111.452754 111.452754 0 0 1 780.911304 93.050435c60.430841 0 109.553159 47.86087 111.838609 107.742608l-171.26029-90.557217z" fill="#3C82C2" p-id="1361"></path><path d="M780.911304 84.828754a119.629913 119.629913 0 0 0-63.814492 18.44684 8.221681 8.221681 0 0 0 0.51942 14.232116l171.26029 90.542377c5.609739 2.968116 12.317681-1.246609 12.065391-7.568696a120.179014 120.179014 0 0 0-120.045449-115.652637z m2.55258 16.473043a103.735652 103.735652 0 0 1 98.882783 82.216812l0.534261 2.760348-143.894261-76.087653 1.988637-0.860753a102.711652 102.711652 0 0 1 39.92116-8.058435l2.56742 0.029681z" fill="#000000" p-id="1362"></path><path d="M702.998261 140.926145l175.400811 92.738783 16.918261-31.99629-175.415652-92.738783z" fill="#F95357" p-id="1363"></path><path d="M712.644638 105.086145l-16.918261 31.99629a8.221681 8.221681 0 0 0 3.413333 11.130435l175.415652 92.723942c4.006957 2.122203 8.978551 0.593623 11.100754-3.413334l16.918261-32.01113a8.221681 8.221681 0 0 0-3.413334-11.100754l-175.415652-92.753623a8.221681 8.221681 0 0 0-11.100753 3.428174z m10.685217 14.944464l160.871884 85.066203-9.245681 17.452521-160.871884-85.036521 9.23084-17.482203z" fill="#000000" p-id="1364"></path><path d="M901.951072 974.848a17.808696 17.808696 0 1 1 0-35.632232 17.808696 17.808696 0 0 1 0 35.632232" fill="#378BCB" p-id="1365"></path><path d="M18.105507 588.428986a17.808696 17.808696 0 1 1 0-35.647073 17.808696 17.808696 0 0 1 0 35.647073M311.503768 154.223304l-12.020869 6.574377a23.477797 23.477797 0 0 0-9.334725 9.319884l-6.559536 12.02087-6.589218-12.02087a23.477797 23.477797 0 0 0-9.319884-9.319884l-12.03571-6.574377 12.02087-6.589217c3.932754-2.151884 7.182841-5.38713 9.334724-9.319884l6.589218-12.02087 6.559536 12.02087c2.151884 3.932754 5.401971 7.168 9.334725 9.319884l12.020869 6.589217z" fill="#E84756" p-id="1366"></path><path d="M1137.827246 588.428986l-12.05055 6.574376a23.418435 23.418435 0 0 0-9.319884 9.319884l-6.574377 12.02087-6.574377-12.02087a23.418435 23.418435 0 0 0-9.334725-9.319884l-12.020869-6.574376 12.020869-6.589218c3.932754-2.151884 7.168-5.38713 9.334725-9.319884l6.574377-12.02087 6.574377 12.02087c2.151884 3.932754 5.38713 7.168 9.319884 9.319884l12.03571 6.589218zM1030.247884 125.254493l-12.03571 6.574377a23.492638 23.492638 0 0 0-9.319884 9.334724l-6.574377 12.02087-6.589217-12.02087a23.477797 23.477797 0 0 0-9.319884-9.334724l-12.035711-6.574377 12.035711-6.589218c3.932754-2.137043 7.168-5.37229 9.319884-9.319884l6.589217-12.020869 6.574377 12.020869c2.151884 3.947594 5.38713 7.182841 9.319884 9.319884l12.03571 6.589218z" fill="#FCFCFC" p-id="1367"></path><path d="M585.906087 1.439536a30.630957 30.630957 0 1 0 0 61.261913 30.630957 30.630957 0 0 0 0-61.261913z m0 16.443363a14.187594 14.187594 0 1 1 0 28.390029 14.187594 14.187594 0 0 1 0-28.390029z" fill="#3B84C5" p-id="1368"></path></svg>