<?xml version="1.0" standalone="no"?><!DOCTYPE svg PUBLIC "-//W3C//DTD SVG 1.1//EN" "http://www.w3.org/Graphics/SVG/1.1/DTD/svg11.dtd"><svg t="1609903338919" class="icon" viewBox="0 0 1024 1024" version="1.1" xmlns="http://www.w3.org/2000/svg" p-id="1674" xmlns:xlink="http://www.w3.org/1999/xlink" width="200" height="200"><defs><style type="text/css"></style></defs><path d="M696.923897 128.787692l-46.408205 80.370872h92.816411z" fill="#FBDA21" p-id="1675"></path><path d="M693.773128 126.949744l-46.408205 80.397128a3.636513 3.636513 0 0 0 3.150769 5.448205h92.816411c2.809436 0 4.555487-3.019487 3.150769-5.448205L700.074667 126.949744a3.636513 3.636513 0 0 0-6.301539 0z m3.150769 9.097846l40.106667 69.474461h-80.213333l40.106666-69.474461z" fill="#000000" p-id="1676"></path><path d="M696.923897 694.652718l-46.408205-80.384h92.816411z" fill="#FBDA21" p-id="1677"></path><path d="M743.332103 610.632205h-92.816411a3.636513 3.636513 0 0 0-3.150769 5.448205l46.408205 80.384a3.636513 3.636513 0 0 0 6.301539 0l46.408205-80.384a3.636513 3.636513 0 0 0-3.150769-5.448205z m-6.301539 7.259898l-40.106667 69.474461-40.119794-69.474461h80.226461z" fill="#000000" p-id="1678"></path><path d="M555.454359 166.688821v92.81641l80.384-46.408205z" fill="#FBDA21" p-id="1679"></path><path d="M551.817846 166.688821v92.81641c0 2.796308 3.032615 4.542359 5.461333 3.150769l80.384-46.408205a3.636513 3.636513 0 0 0 0-6.301539l-80.384-46.408205a3.636513 3.636513 0 0 0-5.461333 3.15077z m7.273026 6.28841l69.474461 40.106666-69.474461 40.106667v-80.213333z" fill="#000000" p-id="1680"></path><path d="M838.393436 656.738462l-80.384-46.408206 80.384-46.408205z" fill="#FBDA21" p-id="1681"></path><path d="M836.568615 560.771282l-80.370871 46.408205a3.636513 3.636513 0 0 0 0 6.301539l80.370871 46.408205a3.636513 3.636513 0 0 0 5.461334-3.150769v-92.816411a3.636513 3.636513 0 0 0-5.461334-3.150769z m-1.82482 9.452308v80.213333l-69.448205-40.106667 69.448205-40.106666z" fill="#000000" p-id="1682"></path><path d="M451.899077 270.244103l46.408205 80.384 46.408205-80.384z" fill="#FBDA21" p-id="1683"></path><path d="M544.715487 266.60759h-92.81641a3.636513 3.636513 0 0 0-3.150769 5.448205l46.408205 80.384a3.636513 3.636513 0 0 0 6.301538 0l46.408205-80.384a3.636513 3.636513 0 0 0-3.150769-5.448205z m-6.301538 7.273025l-40.106667 69.461334-40.106667-69.461334h80.213334z" fill="#000000" p-id="1684"></path><path d="M941.948718 553.183179h-92.81641l46.408205-80.384z" fill="#FBDA21" p-id="1685"></path><path d="M892.402872 470.974359l-46.421334 80.384a3.636513 3.636513 0 0 0 3.15077 5.461333h92.81641c2.809436 0 4.555487-3.019487 3.150769-5.461333l-46.408205-80.384a3.636513 3.636513 0 0 0-6.301538 0z m3.137641 9.097846l40.106666 69.474462h-80.213333l40.106667-69.474462z" fill="#000000" p-id="1686"></path><path d="M413.997949 411.713641l80.370872 46.408205v-92.81641z" fill="#FBDA21" p-id="1687"></path><path d="M492.557128 362.154667l-80.384 46.408205a3.636513 3.636513 0 0 0 0 6.301538l80.384 46.408205a3.636513 3.636513 0 0 0 5.448205-3.150769v-92.81641a3.636513 3.636513 0 0 0-5.448205-3.150769z m-1.82482 9.452307v80.213334L421.284103 411.700513l69.461333-40.106667z" fill="#000000" p-id="1688"></path><path d="M979.862974 411.713641l-80.384 46.408205v-92.81641z" fill="#FBDA21" p-id="1689"></path><path d="M895.842462 365.305436v92.81641c0 2.796308 3.032615 4.542359 5.461333 3.150769l80.370872-46.408205a3.636513 3.636513 0 0 0 0-6.301538l-80.370872-46.408205a3.636513 3.636513 0 0 0-5.461333 3.150769z m7.273025 6.301538l69.461334 40.106667-69.461334 40.106667v-80.213334z" fill="#000000" p-id="1690"></path><path d="M451.899077 553.183179h92.81641l-46.408205-80.384z" fill="#FBDA21" p-id="1691"></path><path d="M495.156513 470.974359l-46.408205 80.384a3.636513 3.636513 0 0 0 3.150769 5.461333h92.81641c2.796308 0 4.542359-3.019487 3.150769-5.461333l-46.408205-80.384a3.636513 3.636513 0 0 0-6.301538 0z m3.150769 9.097846l40.106667 69.474462h-80.213334l40.106667-69.474462z" fill="#000000" p-id="1692"></path><path d="M941.948718 270.244103l-46.408205 80.384-46.408205-80.384z" fill="#FBDA21" p-id="1693"></path><path d="M941.948718 266.60759h-92.81641a3.636513 3.636513 0 0 0-3.15077 5.448205l46.421334 80.384a3.636513 3.636513 0 0 0 6.301538 0l46.408205-80.384a3.636513 3.636513 0 0 0-3.150769-5.448205z m-6.301539 7.273025l-40.106666 69.474462-40.106667-69.474462h80.213333z" fill="#000000" p-id="1694"></path><path d="M555.454359 656.738462l80.384-46.408206-80.384-46.408205z" fill="#FBDA21" p-id="1695"></path><path d="M551.817846 563.922051v92.816411c0 2.796308 3.032615 4.555487 5.461333 3.150769l80.384-46.408205a3.636513 3.636513 0 0 0 0-6.301539l-80.384-46.408205a3.636513 3.636513 0 0 0-5.461333 3.150769z m7.273026 6.301539l69.474461 40.106666-69.474461 40.106667v-80.213333z" fill="#000000" p-id="1696"></path><path d="M838.393436 166.688821v92.81641l-80.384-46.408205z" fill="#FBDA21" p-id="1697"></path><path d="M836.568615 163.538051l-80.370871 46.408205a3.636513 3.636513 0 0 0 0 6.301539l80.370871 46.395077a3.636513 3.636513 0 0 0 5.461334-3.150769v-92.816411a3.636513 3.636513 0 0 0-5.461334-3.150769z m-1.82482 9.43918v80.213333l-69.448205-40.106667 69.448205-40.106666z" fill="#000000" p-id="1698"></path><path d="M870.268718 411.700513c0 95.744-77.600821 173.357949-173.344821 173.357949-95.730872 0-173.344821-77.613949-173.34482-173.344821 0-95.730872 77.613949-173.344821 173.34482-173.34482 95.744 0 173.357949 77.613949 173.357949 173.34482" fill="#E9414A" p-id="1699"></path><path d="M696.923897 231.095795c-99.748103 0-180.617846 80.869744-180.617846 180.617846 0 99.748103 80.869744 180.617846 180.617846 180.617846 99.761231 0 180.630974-80.869744 180.630975-180.617846 0-99.748103-80.869744-180.617846-180.630975-180.617846z m0 14.546051c91.726769 0 166.071795 74.358154 166.071795 166.071795 0 91.713641-74.345026 166.071795-166.071795 166.071795-91.713641 0-166.071795-74.358154-166.071794-166.071795 0-91.726769 74.358154-166.071795 166.071794-166.071795z" fill="#000000" p-id="1700"></path><path d="M622.631385 477.669744H535.368205c0-85.031385-68.923077-153.954462-153.954461-153.954462-85.005128 0-153.941333 68.923077-153.941334 153.954462h-31.52082c-80.344615 0-145.460513 65.115897-145.460513 145.460512s65.115897 145.460513 145.460513 145.460513h426.692923c80.344615 0 145.460513-65.115897 145.460513-145.460513s-65.115897-145.460513-145.460513-145.460512" fill="#EFECED" p-id="1701"></path><path d="M622.631385 477.669744H535.368205c0-85.031385-68.923077-153.954462-153.954461-153.954462-41.878974 0-79.819487 16.790974-107.585641 43.926974a153.101128 153.101128 0 0 1 88.602256-28.173128c85.018256 0 153.954462 68.923077 153.954462 153.954462h87.276307c80.344615 0 145.460513 65.115897 145.460513 145.460513 0 40.487385-16.580923 77.101949-43.283692 103.463384 37.625436-26.295795 62.280205-69.842051 62.280205-119.217231 0-80.344615-65.115897-145.460513-145.460513-145.460512" fill="#317BA4" p-id="1702"></path><path d="M378.748718 316.455385c-84.283077 1.378462-152.838564 67.400205-158.221128 150.633025l-0.183795 3.29518h-24.405333C111.576615 470.38359 43.204923 538.781538 43.204923 623.143385S111.589744 775.863795 195.938462 775.863795h426.692923c84.361846 0 152.746667-68.384821 152.746666-152.733539l-0.026256-2.546871c-1.365333-83.180308-69.211897-150.186667-152.72041-150.186667h-80.160821l-0.026256-0.695795c-4.161641-85.333333-74.673231-153.258667-161.043693-153.258667l-2.665025 0.013129z m2.651897 14.532923c81.001026 0 146.681436 65.667282 146.681436 146.681436 0 4.017231 3.255795 7.273026 7.273026 7.273025h87.276308c76.327385 0 138.200615 61.860103 138.200615 138.187487 0 76.314256-61.873231 138.187487-138.200615 138.187488H195.938462c-76.327385 0-138.187487-61.873231-138.187488-138.187488 0-76.327385 61.860103-138.187487 138.187488-138.187487h31.507692a7.273026 7.273026 0 0 0 7.286154-7.273025c0-81.001026 65.667282-146.681436 146.668307-146.681436z" fill="#000000" p-id="1703"></path><path d="M914.825846 213.897846a15.753846 15.753846 0 1 1-31.507692 0 15.753846 15.753846 0 0 1 31.507692 0" fill="#378BCB" p-id="1704"></path><path d="M572.980513 995.774359a15.753846 15.753846 0 1 1-31.507692 0 15.753846 15.753846 0 0 1 31.507692 0M188.888615 736.216615l5.815795 10.633847c1.90359 3.492103 4.765538 6.340923 8.244513 8.257641l10.633846 5.815794-10.633846 5.828924a20.808205 20.808205 0 0 0-8.244513 8.231384l-5.815795 10.660103-5.828923-10.660103a20.768821 20.768821 0 0 0-8.244513-8.231384l-10.633846-5.828924 10.633846-5.815794c3.478974-1.916718 6.340923-4.765538 8.244513-8.244513l5.828923-10.646975z" fill="#E84756" p-id="1705"></path><path d="M572.980513 5.251282l5.828923 10.646974c1.90359 3.478974 4.765538 6.340923 8.244513 8.244513l10.633846 5.815795-10.633846 5.828923a20.768821 20.768821 0 0 0-8.244513 8.244513l-5.828923 10.646974-5.815795-10.646974a20.808205 20.808205 0 0 0-8.244513-8.244513l-10.633846-5.828923 10.633846-5.815795c3.478974-1.90359 6.340923-4.765538 8.244513-8.244513l5.815795-10.633846zM163.262359 100.404513l5.828923 10.646974c1.890462 3.478974 4.75241 6.340923 8.231385 8.257641l10.646974 5.802667-10.633846 5.828923a20.768821 20.768821 0 0 0-8.244513 8.244513l-5.828923 10.646974-5.828923-10.633846a20.716308 20.716308 0 0 0-8.244513-8.257641l-10.633846-5.828923 10.633846-5.802667c3.492103-1.916718 6.340923-4.778667 8.244513-8.257641l5.828923-10.633846z" fill="#FCFCFC" p-id="1706"></path><path d="M80.830359 466.366359a27.096615 27.096615 0 1 0 0 54.193231 27.096615 27.096615 0 0 0 0-54.193231z m0 14.546051a12.550564 12.550564 0 1 1 0 25.114257 12.550564 12.550564 0 0 1 0-25.114257z" fill="#3B84C5" p-id="1707"></path></svg>