<?xml version="1.0" standalone="no"?><!DOCTYPE svg PUBLIC "-//W3C//DTD SVG 1.1//EN" "http://www.w3.org/Graphics/SVG/1.1/DTD/svg11.dtd"><svg t="1609903363094" class="icon" viewBox="0 0 1024 1024" version="1.1" xmlns="http://www.w3.org/2000/svg" p-id="2180" xmlns:xlink="http://www.w3.org/1999/xlink" width="200" height="200"><defs><style type="text/css"></style></defs><path d="M727.512615 908.734359H313.934769c-96.347897 0-174.44759-78.112821-174.44759-174.460718V340.086154c0-96.334769 78.112821-174.44759 174.44759-174.44759h413.577846c96.347897 0 174.44759 78.112821 174.44759 174.44759v394.187487c0 96.347897-78.112821 174.44759-174.44759 174.44759" fill="#FEFEFE" p-id="2181"></path><path d="M931.052308 342.619897v-2.520615c0-96.361026-78.099692-174.460718-174.44759-174.460718H343.013744c-96.334769 0-174.434462 78.112821-174.434462 174.460718v2.520615h762.486154z" fill="#E8434B" p-id="2182"></path><path d="M799.849026 171.060513c60.232205 27.490462 102.111179 88.195282 102.111179 158.72v2.546872H168.763077c-0.105026 2.573128-0.183795 5.159385-0.183795 7.758769v2.533743h762.486154v-2.533743c0-81.408-55.794872-149.792821-131.21641-169.038769" fill="#C52F37" p-id="2183"></path><path d="M727.512615 158.365538c99.367385 0 180.092718 79.740718 181.694359 178.727385l0.026257 3.006359V734.260513c0 99.367385-79.740718 180.092718-178.714257 181.694359l-3.006359 0.026256H313.921641c-99.354256 0-180.07959-79.740718-181.694359-178.714256l-0.013128-3.006359v-249.829744a7.273026 7.273026 0 0 1 14.493538-0.840205l0.052513 0.853333V734.260513c0 91.411692 73.347282 165.677949 164.404513 167.148308l2.756923 0.026256h413.590974c91.411692 0 165.677949-73.347282 167.148308-164.404513l0.026256-2.770051V340.099282c0-91.411692-73.347282-165.677949-164.404512-167.161436l-2.770052-0.026256H313.921641c-91.398564 0-165.664821 73.36041-167.135179 164.417641l-0.026257 2.756923v68.004102a7.273026 7.273026 0 0 1-14.493538 0.840206l-0.052513-0.853334v-67.977846c0-99.367385 79.740718-180.092718 178.714256-181.694359l2.993231-0.039385h413.590974z" fill="#000000" p-id="2184"></path><path d="M412.750769 560.823795h-84.676923a46.158769 46.158769 0 0 1-46.158769-46.158769v-84.676923a46.145641 46.145641 0 0 1 46.158769-46.145641h84.676923a46.145641 46.145641 0 0 1 46.145641 46.145641v84.676923a46.158769 46.158769 0 0 1-46.145641 46.158769" fill="#E1494A" p-id="2185"></path><path d="M432.416821 388.279795c2.822564 5.973333 4.437333 12.629333 4.437333 19.666051v84.676923a46.145641 46.145641 0 0 1-46.145641 46.158769h-84.676923a45.817436 45.817436 0 0 1-19.666052-4.450461 46.119385 46.119385 0 0 0 41.708308 26.492718h84.676923a46.158769 46.158769 0 0 0 46.145641-46.158769v-84.676923a46.119385 46.119385 0 0 0-26.479589-41.708308" fill="#DA3549" p-id="2186"></path><path d="M725.504 560.823795h-84.676923a46.158769 46.158769 0 0 1-46.158769-46.158769v-84.676923a46.145641 46.145641 0 0 1 46.145641-46.145641h84.676923a46.145641 46.145641 0 0 1 46.158769 46.145641v84.676923a46.158769 46.158769 0 0 1-46.145641 46.158769" fill="#E1494A" p-id="2187"></path><path d="M745.156923 388.279795c2.822564 5.973333 4.437333 12.629333 4.437333 19.666051v84.676923a46.145641 46.145641 0 0 1-46.132512 46.158769h-84.676923a45.817436 45.817436 0 0 1-19.666052-4.450461 46.119385 46.119385 0 0 0 41.69518 26.492718h84.676923a46.158769 46.158769 0 0 0 46.158769-46.158769v-84.676923a46.119385 46.119385 0 0 0-26.492718-41.708308" fill="#DA3549" p-id="2188"></path><path d="M400.620308 363.231179a53.431795 53.431795 0 0 1 53.405538 51.659488l0.026257 1.772307v84.676923a53.431795 53.431795 0 0 1-51.659488 53.392411l-1.772307 0.026256h-84.676923a53.431795 53.431795 0 0 1-53.392411-51.659487l-0.026256-1.75918v-54.166974a7.273026 7.273026 0 0 1 14.493538-0.840205l0.052513 0.840205v54.166974a38.885744 38.885744 0 0 0 37.284103 38.846359l1.588513 0.026257h84.676923a38.885744 38.885744 0 0 0 38.859487-37.270975l0.026256-1.601641v-84.676923a38.885744 38.885744 0 0 0-37.284102-38.859487l-1.601641-0.026256h-84.676923a38.885744 38.885744 0 0 0-38.872616 38.885743 7.273026 7.273026 0 0 1-14.546051 0 53.431795 53.431795 0 0 1 51.659487-53.405538l1.75918-0.026257h84.676923zM712.283897 363.231179a53.431795 53.431795 0 0 1 53.405539 51.659488l0.026256 1.772307v84.676923a53.431795 53.431795 0 0 1-51.659487 53.392411l-1.772308 0.026256h-84.676923a53.418667 53.418667 0 0 1-53.379282-51.659487l-0.039384-1.75918v-20.519384a7.273026 7.273026 0 0 1 14.506666-0.853334l0.039385 0.853334v20.519384a38.859487 38.859487 0 0 0 37.284103 38.833231l1.601641 0.039385h84.676923a38.872615 38.872615 0 0 0 38.846359-37.284103l0.026256-1.588513v-84.676923a38.885744 38.885744 0 0 0-37.284103-38.859487l-1.601641-0.026256h-84.676923a38.898872 38.898872 0 0 0-36.181333 24.615384 7.273026 7.273026 0 1 1-13.522051-5.343179 53.431795 53.431795 0 0 1 47.707897-33.778872l2.008616-0.039385h84.676923z" fill="#000000" p-id="2189"></path><path d="M581.461333 426.272821c3.72841 0 6.80041 2.796308 7.220513 6.419692l0.052513 0.853333v13.627077a7.273026 7.273026 0 0 1-14.493538 0.853333l-0.052513-0.853333v-13.627077c0-4.017231 3.255795-7.273026 7.273025-7.273025z" fill="#000000" p-id="2190"></path><path d="M412.750769 839.02359h-84.676923a46.158769 46.158769 0 0 1-46.158769-46.158769v-84.676924a46.145641 46.145641 0 0 1 46.158769-46.145641h84.676923a46.145641 46.145641 0 0 1 46.145641 46.145641v84.676924a46.158769 46.158769 0 0 1-46.145641 46.158769" fill="#E1494A" p-id="2191"></path><path d="M432.416821 666.492718c2.822564 5.960205 4.437333 12.603077 4.437333 19.652923v84.676923a46.145641 46.145641 0 0 1-46.145641 46.158769h-84.676923a45.817436 45.817436 0 0 1-19.666052-4.450461 46.119385 46.119385 0 0 0 41.708308 26.492718h84.676923a46.158769 46.158769 0 0 0 46.145641-46.158769v-84.676924a46.119385 46.119385 0 0 0-26.479589-41.695179" fill="#DA3549" p-id="2192"></path><path d="M725.504 839.02359h-84.676923a46.158769 46.158769 0 0 1-46.158769-46.158769v-84.676924a46.145641 46.145641 0 0 1 46.145641-46.145641h84.676923a46.145641 46.145641 0 0 1 46.158769 46.145641v84.676924a46.158769 46.158769 0 0 1-46.145641 46.158769" fill="#E1494A" p-id="2193"></path><path d="M745.156923 666.492718c2.822564 5.960205 4.437333 12.603077 4.437333 19.652923v84.676923a46.145641 46.145641 0 0 1-46.132512 46.158769h-84.676923a45.817436 45.817436 0 0 1-19.666052-4.450461 46.119385 46.119385 0 0 0 41.69518 26.492718h84.676923a46.158769 46.158769 0 0 0 46.158769-46.158769v-84.676924a46.119385 46.119385 0 0 0-26.492718-41.695179" fill="#DA3549" p-id="2194"></path><path d="M400.633436 641.444103a53.431795 53.431795 0 0 1 53.39241 51.646359l0.026257 1.772307v84.676923a53.431795 53.431795 0 0 1-51.659488 53.392411l-1.759179 0.026256h-84.676923a53.431795 53.431795 0 0 1-53.405539-51.659487l-0.026256-1.75918v-67.794051a7.273026 7.273026 0 0 1 14.493538-0.853333l0.052513 0.853333v67.794051a38.872615 38.872615 0 0 0 37.284103 38.846359l1.588513 0.026257h84.676923a38.885744 38.885744 0 0 0 38.859487-37.270975l0.026256-1.601641v-84.676923a38.885744 38.885744 0 0 0-37.284102-38.859487l-1.588513-0.026256h-84.676923a38.859487 38.859487 0 0 0-34.658462 21.254564 7.273026 7.273026 0 0 1-12.970666-6.603487 53.405538 53.405538 0 0 1 45.594256-29.144616l2.021744-0.052513h84.676923zM712.283897 641.444103a53.431795 53.431795 0 0 1 53.405539 51.659487l0.026256 1.759179v84.676923a53.431795 53.431795 0 0 1-51.672615 53.392411l-1.75918 0.026256h-84.676923a53.431795 53.431795 0 0 1-53.39241-51.659487l-0.026256-1.75918v-84.676923a7.273026 7.273026 0 0 1 14.493538-0.853333l0.052513 0.853333v84.676923a38.872615 38.872615 0 0 0 37.284103 38.846359l1.601641 0.026257h84.676923a38.872615 38.872615 0 0 0 38.83323-37.284103l0.039385-1.588513v-84.676923a38.885744 38.885744 0 0 0-37.284103-38.859487l-1.601641-0.026256h-84.676923a38.820103 38.820103 0 0 0-32.439795 17.460512 7.273026 7.273026 0 1 1-12.130461-8.021333 53.366154 53.366154 0 0 1 42.574769-23.945846l2.008616-0.039385h84.676923z" fill="#000000" p-id="2195"></path><path d="M712.086974 480.820513h-84.283077a6.038974 6.038974 0 0 1-6.038974-6.052103v-9.714872a6.038974 6.038974 0 0 1 6.038974-6.052102h84.283077a6.038974 6.038974 0 0 1 6.052103 6.038974v9.714872a6.038974 6.038974 0 0 1-6.038974 6.065231M712.086974 742.045538h-84.283077a6.038974 6.038974 0 0 1-6.038974-6.038974v-9.728a6.038974 6.038974 0 0 1 6.038974-6.052102h84.283077c3.347692 0 6.052103 2.717538 6.052103 6.038974v9.741128a6.038974 6.038974 0 0 1-6.038974 6.038974M712.086974 781.325128h-84.283077a6.038974 6.038974 0 0 1-6.038974-6.038974v-9.714872a6.038974 6.038974 0 0 1 6.038974-6.065231h84.283077c3.347692 0 6.052103 2.717538 6.052103 6.052103v9.714872a6.038974 6.038974 0 0 1-6.038974 6.052102M405.398974 480.820513h-84.283077a6.038974 6.038974 0 0 1-6.038974-6.052103v-9.714872a6.038974 6.038974 0 0 1 6.038974-6.052102h84.283077a6.038974 6.038974 0 0 1 6.038975 6.038974v9.714872a6.038974 6.038974 0 0 1-6.038975 6.065231" fill="#2470B9" p-id="2196"></path><path d="M374.180103 427.769436v84.283077a6.038974 6.038974 0 0 1-6.038975 6.038974H358.4a6.038974 6.038974 0 0 1-6.038974-6.038974v-84.283077a6.038974 6.038974 0 0 1 6.038974-6.052103h9.728a6.038974 6.038974 0 0 1 6.038974 6.052103M400.777846 764.127179l-22.081641-22.081641 22.081641-22.081641a6.052103 6.052103 0 0 0 0-8.546461l-6.879179-6.87918a6.038974 6.038974 0 0 0-8.546462 0l-22.081641 22.081641-22.081641-22.081641a6.038974 6.038974 0 0 0-8.55959 0l-6.866051 6.87918a6.038974 6.038974 0 0 0 0 8.546461l22.081641 22.081641-22.081641 22.081641a6.038974 6.038974 0 0 0 0 8.55959l6.866051 6.866052c2.363077 2.363077 6.183385 2.363077 8.55959 0l22.081641-22.081642 22.081641 22.081642c2.363077 2.363077 6.170256 2.363077 8.546462 0l6.879179-6.866052a6.052103 6.052103 0 0 0 0-8.55959" fill="#2470B9" p-id="2197"></path><path d="M942.198154 218.781538a15.766974 15.766974 0 1 1-31.547077-0.013128 15.766974 15.766974 0 0 1 31.547077 0" fill="#378BCB" p-id="2198"></path><path d="M600.352821 1000.658051a15.766974 15.766974 0 1 1-31.533949-0.013128 15.766974 15.766974 0 0 1 31.533949 0M216.247795 741.087179l5.815795 10.646975c1.90359 3.478974 4.765538 6.340923 8.244513 8.244513l10.633846 5.815795-10.633846 5.828923a20.742564 20.742564 0 0 0-8.244513 8.244512l-5.815795 10.633847-5.828923-10.633847a20.690051 20.690051 0 0 0-8.244513-8.244512l-10.633846-5.828923 10.633846-5.815795c3.478974-1.90359 6.340923-4.765538 8.244513-8.244513l5.828923-10.633846z" fill="#E84756" p-id="2199"></path><path d="M600.352821 10.134974l5.815794 10.633847c1.90359 3.478974 4.765538 6.340923 8.244513 8.244512l10.633846 5.828923-10.633846 5.815795a20.742564 20.742564 0 0 0-8.244513 8.257641l-5.815794 10.633846-5.828924-10.633846a20.690051 20.690051 0 0 0-8.244512-8.257641l-10.633847-5.815795 10.633847-5.828923c3.478974-1.90359 6.340923-4.765538 8.244512-8.231384l5.828924-10.646975z" fill="#E9434D" p-id="2200"></path><path d="M190.621538 105.288205l5.828924 10.633846c1.890462 3.492103 4.75241 6.354051 8.244512 8.257641l10.633847 5.815795-10.633847 5.828923a20.676923 20.676923 0 0 0-8.244512 8.244513l-5.828924 10.633846-5.828923-10.633846a20.650667 20.650667 0 0 0-8.244512-8.244513l-10.633847-5.828923 10.633847-5.815795c3.492103-1.90359 6.340923-4.765538 8.244512-8.244513l5.828923-10.646974z" fill="#FCFCFC" p-id="2201"></path><path d="M108.17641 471.250051a27.096615 27.096615 0 1 0 0.026257 54.193231 27.096615 27.096615 0 0 0-0.013129-54.193231z m0 14.546052a12.563692 12.563692 0 1 1 0 25.114256 12.563692 12.563692 0 0 1 0-25.114256z" fill="#3B84C5" p-id="2202"></path></svg>