<?xml version="1.0" standalone="no"?><!DOCTYPE svg PUBLIC "-//W3C//DTD SVG 1.1//EN" "http://www.w3.org/Graphics/SVG/1.1/DTD/svg11.dtd"><svg t="1609905059190" class="icon" viewBox="0 0 1234 1024" version="1.1" xmlns="http://www.w3.org/2000/svg" p-id="1739" xmlns:xlink="http://www.w3.org/1999/xlink" width="241.015625" height="200"><defs><style type="text/css"></style></defs><path d="M933.390355 896.296673a408.384598 408.384598 0 0 0-183.965906-103.586692 42.137121 42.137121 0 0 1-31.504748-36.720448 186.40628 186.40628 0 0 1-0.890019-18.135327c0-101.653533 82.704748-184.36785 184.367851-184.367851 195.650991 0 255.464075 266.364411 79.651888 350.667365a42.137121 42.137121 0 0 1-47.659066-7.866617z" fill="#BCBEC0" p-id="1740"></path><path d="M371.367477 799.76314l51.477532-575.057346a42.137121 42.137121 0 0 1 41.96486-38.376074h27.829832c21.819813 0 40.012561 16.651963 41.96486 38.376074l46.740336 522.527103a42.127551 42.127551 0 0 1-31.887551 44.654056 404.862804 404.862804 0 0 0-114.171215 47.592075c-29.322766 17.896075-67.009794-5.16785-63.918654-39.715888z" fill="#F2C500" p-id="1741"></path><path d="M581.335327 747.232897l-46.740336-522.527103a42.137121 42.137121 0 0 0-41.96486-38.376074h-13.924486v630.171514a404.795813 404.795813 0 0 1 70.751701-24.614281 42.127551 42.127551 0 0 0 31.877981-44.654056z" fill="#F59D00" p-id="1742"></path><path d="M951.640523 219.710206C897.502505-35.581607 586.73286-66.60785 478.696075 142.402991 370.745421-66.51215 59.966206-35.83043 5.780336 219.700636c-8.775776 41.390654 42.519925 68.445308 71.718281 37.801869 43.869308-46.07043 108.888523-72.483888 178.386542-72.483888 0.440224 0 0.880449 0.02871 1.330243 0.02871-145.838654 66.703551-202.579738 260.459664-72.062804 407.49458 28.002093 31.543028 80.369645 6.670355 73.000673-35.256225-20.164187-114.774131 55.410841-258.583925 213.901159-287.389906 2.287252-0.392374 4.497944-0.966579 6.641645-1.722617 2.804037 0.99529 6.057869 1.732187 8.670504 2.06714 132.545794 16.661533 234.945794 155.734131 211.88187 287.045383-7.368972 41.99357 45.122991 66.665271 73.010243 35.256225 131.387813-148.011065 72.416897-341.413084-72.062804-407.49458 0.449794 0 0.890019-0.02871 1.339813-0.02871 69.488449 0 134.507664 26.413458 178.367402 72.474318 29.073944 30.519028 80.570617 3.895028 71.73742-37.792299z" fill="#65C6BB" p-id="1743"></path><path d="M951.640523 219.710206C897.502505-35.572037 586.74243-66.626991 478.696075 142.402991v125.779738c2.804037 0.99529 6.048299 1.732187 8.660934 2.06714 132.545794 16.661533 234.955364 155.734131 211.88187 287.045383-7.368972 41.99357 45.122991 66.665271 73.010242 35.256225 131.253832-147.857944 72.598729-341.326953-72.062803-407.49458l1.330243-0.02871c69.498019 0 134.517234 26.413458 178.386542 72.474318 29.064374 30.519028 80.561047 3.895028 71.72785-37.792299z" fill="#57BDB7" p-id="1744"></path><path d="M1043.618692 1014.678729H251.961421c-31.944972 0-52.310131-34.289645-36.950131-62.358729 186.664673-340.992 678.251664-342.159551 865.576673 0 15.34086 28.021234-4.957308 62.358729-36.950131 62.358729z" fill="#E87E04" p-id="1745"></path><path d="M1080.578393 952.32c-117.377196-214.389234-373.176224-310.214579-601.863178-226.811215v289.169944h564.913047c31.944972 0 52.310131-34.299215 36.950131-62.358729z" fill="#D55400" p-id="1746"></path><path d="M1187.629458 1014.678729H107.960224a42.127551 42.127551 0 0 1 0-84.255103h1079.669234a42.127551 42.127551 0 0 1 0 84.264673z" fill="#48AEE2" p-id="1747"></path><path d="M1187.629458 930.423626H478.705645v84.255103h708.914243a42.127551 42.127551 0 0 0 0.00957-84.255103z" fill="#39A3DB" p-id="1748"></path></svg>