<?xml version="1.0" standalone="no"?><!DOCTYPE svg PUBLIC "-//W3C//DTD SVG 1.1//EN" "http://www.w3.org/Graphics/SVG/1.1/DTD/svg11.dtd"><svg t="1609904969318" class="icon" viewBox="0 0 1024 1024" version="1.1" xmlns="http://www.w3.org/2000/svg" p-id="1376" xmlns:xlink="http://www.w3.org/1999/xlink" width="200" height="200"><defs><style type="text/css"></style></defs><path d="M0 512C0 229.226667 229.226667 0 512 0s512 229.226667 512 512-229.226667 512-512 512S0 794.773333 0 512z" fill="#FFE812" p-id="1377"></path><path d="M512 234.666667c-188.522667 0-341.333333 120.490667-341.333333 269.12 0 96.106667 63.893333 180.416 160 228.032-5.226667 18.026667-33.6 116.010667-34.730667 123.712 0 0-0.682667 5.781333 3.072 7.978666 3.733333 2.197333 8.149333 0.490667 8.149333 0.490667 10.730667-1.493333 124.522667-81.429333 144.213334-95.317333a431.36 431.36 0 0 0 60.629333 4.245333c188.522667 0 341.333333-120.490667 341.333333-269.141333C853.333333 355.157333 700.522667 234.666667 512 234.666667z" fill="#381F1F" p-id="1378"></path><path d="M373.696 423.381333c10.666667 0 19.328 8.661333 19.328 19.285334a19.328 19.328 0 0 1-19.328 19.285333h-30.72v116.992c0 10.368-8.832 18.794667-19.690667 18.794667-10.858667 0-19.690667-8.426667-19.690666-18.794667v-116.992H272.853333a19.328 19.328 0 0 1-19.306666-19.285333c0-10.624 8.661333-19.285333 19.306666-19.285334h100.842667z m66.090667 0c12.842667 0.298667 22.933333 10.005333 26.261333 19.456l47.082667 123.925334c5.994667 18.624 0.768 25.514667-4.650667 28.010666a30.293333 30.293333 0 0 1-12.522667 2.709334c-8.213333 0-14.485333-3.328-16.384-8.682667l-9.749333-25.536h-60.053333l-9.749334 25.536c-1.898667 5.354667-8.170667 8.682667-16.384 8.682667a29.802667 29.802667 0 0 1-12.522666-2.709334c-5.418667-2.496-10.645333-9.386667-4.672-27.968l47.104-123.989333c3.328-9.429333 13.397333-19.136 26.24-19.434667z m214.442666 0c10.858667 0 19.690667 8.832 19.690667 19.690667v42.325333l54.933333-54.933333a15.274667 15.274667 0 0 1 10.922667-4.373333c4.928 0 9.856 2.112 13.546667 5.802666 3.456 3.456 5.504 7.893333 5.802666 12.48a15.317333 15.317333 0 0 1-4.352 11.989334l-44.885333 44.885333 48.490667 64.213333a19.818667 19.818667 0 0 1 3.776 14.592 19.605333 19.605333 0 0 1-7.637334 12.970667 19.52 19.52 0 0 1-20.650666 1.941333 19.754667 19.754667 0 0 1-6.933334-5.781333l-46.186666-61.205333-6.826667 6.848v42.965333a19.669333 19.669333 0 0 1-39.381333 0v-134.72c0-10.858667 8.832-19.690667 19.690666-19.690667z m-108.181333 0c11.093333 0 20.096 8.832 20.096 19.690667v115.690667H608c10.410667 0 18.88 8.106667 18.88 18.069333 0 9.941333-8.469333 18.048-18.88 18.048h-63.189333c-10.410667 0-18.858667-8.106667-18.858667-18.048v-133.76c0-10.858667 9.002667-19.690667 20.096-19.690667z m-106.261333 49.130667l-19.669334 55.872h39.338667l-19.669333-55.872z" fill="#FFE812" p-id="1379"></path></svg>