<?xml version="1.0" standalone="no"?><!DOCTYPE svg PUBLIC "-//W3C//DTD SVG 1.1//EN" "http://www.w3.org/Graphics/SVG/1.1/DTD/svg11.dtd"><svg t="1609904946448" class="icon" viewBox="0 0 1024 1024" version="1.1" xmlns="http://www.w3.org/2000/svg" p-id="1443" xmlns:xlink="http://www.w3.org/1999/xlink" width="200" height="200"><defs><style type="text/css"></style></defs><path d="M810.9 941.7H213.1c-61.9 0-112.1-50.2-112.1-112.1V269.1c0-61.9 50.2-112.1 112.1-112.1h37.4v56c0 51.6 41.8 93.4 93.4 93.4s93.4-41.8 93.4-93.4v-56h149.5v56c0 51.6 41.8 93.4 93.4 93.4 51.6 0 93.4-41.8 93.4-93.4v-56H811c61.9 0 112.1 50.2 112.1 112.1v560.4c-0.1 62-50.3 112.2-112.2 112.2zM306.5 456c-31 0-56 25.1-56 56s25.1 56 56 56 56-25.1 56-56-25-56-56-56z m0 224.1c-31 0-56 25.1-56 56s25.1 56 56 56 56-25.1 56-56-25-56-56-56zM512 456c-31 0-56 25.1-56 56s25.1 56 56 56 56-25.1 56-56-25-56-56-56z m0 224.1c-31 0-56 25.1-56 56s25.1 56 56 56 56-25.1 56-56-25-56-56-56zM717.5 456c-31 0-56 25.1-56 56s25.1 56 56 56 56-25.1 56-56-25.1-56-56-56z m-37.4-205.5c-20.6 0-37.4-16.7-37.4-37.4v-93.4c0-20.6 16.7-37.4 37.4-37.4 20.6 0 37.4 16.7 37.4 37.4v93.4c0 20.6-16.7 37.4-37.4 37.4z m-336.2 0c-20.6 0-37.4-16.7-37.4-37.4v-93.4c0-20.6 16.7-37.4 37.4-37.4s37.4 16.7 37.4 37.4v93.4c-0.1 20.6-16.8 37.4-37.4 37.4z" fill="#FB822F" p-id="1444"></path></svg>