<?xml version="1.0" standalone="no"?><!DOCTYPE svg PUBLIC "-//W3C//DTD SVG 1.1//EN" "http://www.w3.org/Graphics/SVG/1.1/DTD/svg11.dtd"><svg t="1609903345095" class="icon" viewBox="0 0 1024 1024" version="1.1" xmlns="http://www.w3.org/2000/svg" p-id="1851" xmlns:xlink="http://www.w3.org/1999/xlink" width="200" height="200"><defs><style type="text/css"></style></defs><path d="M129.234051 295.345231s236.373333-218.190769 682.469744-89.691898c0 0 104.237949 60.599795 25.45559 190.306462 0 0-130.92759 4.857436-173.344821-69.093744 0 0 26.663385-52.736 1.811692-57.580307 0 0-330.331897 48.482462-374.573948 46.066871 0 0-26.663385 23.026872 15.149948 59.995898 0 0-36.969026 83.049026-143.635692 114.556718 0 0-109.095385-43.034256-33.345641-194.56" fill="#E9434D" p-id="1852"></path><path d="M487.450256 159.520821a7.273026 7.273026 0 0 1 0.932103 14.519794c-95.822769 6.144-179.817026 28.829538-251.772718 62.779077-29.801026 14.047179-55.466667 29.105231-76.94441 44.137026-6.564103 4.594872-12.288 8.874667-17.197949 12.786872l-4.24041 3.439589a164.233846 164.233846 0 0 0-2.494359 2.113642l-0.603898 0.525128-1.010871 2.048c-36.457026 74.738872-30.142359 126.398359 2.139897 160.334769l1.430974 1.457231a98.120205 98.120205 0 0 0 24.024616 17.814974l1.339077 0.682667 1.903589-0.577641c32.452923-10.226872 60.127179-25.928205 83.364103-45.712411l3.150769-2.717538a221.682872 221.682872 0 0 0 37.192205-42.102154c2.809436-4.161641 5.211897-8.060718 7.220513-11.63159l1.365334-2.454974-1.115898-1.050256c-21.950359-21.687795-25.311179-41.800205-16.173949-57.93477l0.708923-1.194666c1.995487-3.268923 4.069744-5.579487 5.645129-6.931693a7.273026 7.273026 0 0 1 5.146256-1.759179l1.641026 0.065641c19.718564 0.459487 85.622154-6.866051 181.851897-19.60041l25.442462-3.413334c31.218872-4.201026 63.369846-8.651487 95.179487-13.141333l69.001846-9.911795a7.273026 7.273026 0 0 1 2.454974 0.052513c16.01641 3.124513 19.193436 17.749333 14.572308 37.415385a127.081026 127.081026 0 0 1-4.778667 15.451897 174.211282 174.211282 0 0 1-3.308307 8.192l-1.444103 3.242667 0.87959 1.391589c14.336 21.779692 38.426256 37.376 69.842051 47.550359l3.282051 1.037129c18.143179 5.566359 37.625436 9.084718 57.370257 10.922666 11.014564 1.024 20.676923 1.417846 28.317538 1.417846l1.220923-0.013128 1.470359-2.494359c36.141949-62.923487 31.035077-112.206769 0.577641-149.832205l-1.444102-1.759179a120.162462 120.162462 0 0 0-22.23918-20.55877l-2.599384-1.732923-7.574975-2.153025c-68.004103-19.035897-133.408821-30.614974-196.214153-35.354257l-7.824411-0.551384a7.273026 7.273026 0 0 1 0.958359-14.519795c68.844308 4.594872 140.734359 17.289846 215.617641 38.859487 0.577641 0.157538 1.129026 0.393846 1.641026 0.695795l1.522872 0.918974c1.969231 1.273436 4.673641 3.150769 7.890051 5.684513 6.826667 5.356308 13.613949 11.789128 19.954872 19.364103 36.640821 43.690667 42.509128 102.216205-1.352205 174.421333a7.273026 7.273026 0 0 1-5.947077 3.492103l-1.404718 0.039384c-8.664615 0.157538-20.322462-0.183795-33.923282-1.444102-20.663795-1.916718-41.10441-5.605744-60.297846-11.500308-38.426256-11.815385-67.846564-31.179487-84.283077-59.838359a7.273026 7.273026 0 0 1-0.183795-6.905436l1.404718-2.953846 0.393846-0.866462c1.39159-3.072 2.783179-6.406564 4.069743-9.859282 1.798564-4.765538 3.255795-9.386667 4.253539-13.666461 2.70441-11.513436 1.798564-17.736205-2.034872-19.442872l-0.236308-0.091898-43.598769 6.301539-43.113025 6.091487c-19.154051 2.678154-38.334359 5.343179-57.278359 7.916308l-35.945026 4.857436-42.535385 5.566359c-74.922667 9.622974-126.358974 15.136821-147.180307 15.268102h-1.339077l-0.551385 0.787693-0.564513 0.892718c-6.931692 11.290256-4.161641 25.96759 17.959385 45.528615 2.363077 2.100513 3.111385 5.500718 1.82482 8.402051l-0.932102 1.969231a183.965538 183.965538 0 0 1-11.211487 18.917744 236.150154 236.150154 0 0 1-39.634052 44.859076c-26.466462 23.341949-58.473026 41.603282-96.452923 52.827898a7.273026 7.273026 0 0 1-4.726154-0.210051 76.196103 76.196103 0 0 1-10.476307-5.395693A112.574359 112.574359 0 0 1 127.34359 473.888821C88.825436 434.937436 81.211077 375.112205 122.722462 292.102564c0.393846-0.787692 0.918974-1.496615 1.575384-2.100513l1.837949-1.627897c1.260308-1.102769 2.966974-2.533744 5.093743-4.266667 5.618872-4.555487 12.314256-9.622974 20.086154-15.058051 22.134154-15.491282 48.508718-30.969436 79.084308-45.384205 73.570462-34.710974 159.337026-57.869128 257.050256-64.14441z" fill="#000000" p-id="1853"></path><path d="M541.275897 157.853538a7.273026 7.273026 0 0 1-0.013128 14.546052c-9.373538 0-18.589538 0.131282-27.634872 0.433231a7.273026 7.273026 0 1 1-0.472615-14.546052 841.517949 841.517949 0 0 1 28.107487-0.433231z" fill="#000000" p-id="1854"></path><path d="M683.808821 476.120615H667.437949v-120.162461h-57.580308v36.365128H432.876308v-36.365128h-57.593436v120.162461H358.925128c-86.514872 0-156.672 70.144-156.672 156.672v280.982975H840.467692V632.792615c0-86.514872-70.144-156.672-156.658871-156.672" fill="#388BC9" p-id="1855"></path><path d="M353.463795 348.685128l-0.840205 0.052513a7.273026 7.273026 0 0 0-6.432821 7.220513v112.889436h-9.097846c-90.545231 0-163.945026 73.399795-163.945026 163.945025v280.982975c0 4.017231 3.255795 7.273026 7.273026 7.273025h638.227692a7.273026 7.273026 0 0 0 7.273026-7.273025V632.792615l-0.013128-2.717538c-1.444103-89.284923-74.292513-161.214359-163.918769-161.214359l-9.110975-0.013128v-112.889436a7.273026 7.273026 0 0 0-7.259897-7.273026H588.012308l-0.840205 0.052513a7.273026 7.273026 0 0 0-6.432821 7.220513v29.092102H418.317128v-29.092102a7.273026 7.273026 0 0 0-7.259897-7.273026h-57.593436z m241.834667 14.546051h43.034256v112.902565c0 4.004103 3.268923 7.259897 7.286154 7.259897h16.370872l2.520615 0.026256c81.342359 1.339077 146.865231 67.702154 146.865231 149.372718V906.502564H187.693949V632.779487c0-82.497641 66.888205-149.385846 149.398974-149.385846h16.370872l0.853333-0.039385a7.273026 7.273026 0 0 0 6.432821-7.220512v-112.902565h43.021128v29.092103c0 4.017231 3.268923 7.286154 7.286154 7.286154h176.968205l0.853333-0.052513a7.273026 7.273026 0 0 0 6.432821-7.220513v-29.105231z" fill="#000000" p-id="1856"></path><path d="M140.261744 304.443077a7.273026 7.273026 0 0 1 13.246359 6.038974l-1.168411 2.717539-1.286564 3.229538c-1.890462 4.883692-3.780923 10.371282-5.553231 16.318359-5.933949 19.994256-9.019077 40.132923-7.771897 58.709334 1.142154 17.106051 5.960205 31.862154 14.966154 43.756307a7.273026 7.273026 0 0 1-11.605333 8.769641c-10.857026-14.336-16.541538-31.796513-17.880616-51.554461-1.378462-20.532513 1.969231-42.312205 8.349539-63.816205 1.890462-6.340923 3.912205-12.209231 5.933948-17.434257l1.430975-3.584c0.551385-1.365333 1.010872-2.41559 1.339077-3.150769zM315.746462 506.22359a7.273026 7.273026 0 0 1 3.702153 14.073436l-1.365333 0.406974a117.930667 117.930667 0 0 0-12.694974 4.962462c-10.857026 4.97559-21.727179 11.63159-31.849026 20.217435-28.973949 24.549744-46.276923 59.510154-46.185026 107.336206a7.273026 7.273026 0 0 1-14.546051 0.026256c-0.105026-52.250256 19.193436-91.241026 51.331282-118.468923a152.904205 152.904205 0 0 1 35.18359-22.331077 108.964103 108.964103 0 0 1 16.423385-6.209641z" fill="#F2F2F2" p-id="1857"></path><path d="M658.077538 713.557333c0 87.565128-70.984205 158.536205-158.536205 158.536205-87.552 0-158.536205-70.984205-158.536205-158.536205 0-87.565128 70.984205-158.523077 158.536205-158.523077 87.552 0 158.536205 70.971077 158.536205 158.523077" fill="#FFFFFF" p-id="1858"></path><path d="M583.181128 713.557333a83.639795 83.639795 0 1 1-167.27959 0 83.639795 83.639795 0 0 1 167.27959 0" fill="#E9434D" p-id="1859"></path><path d="M658.077538 713.557333c0 87.565128-70.984205 158.536205-158.536205 158.536205-87.552 0-158.536205-70.984205-158.536205-158.536205 0-87.565128 70.984205-158.523077 158.536205-158.523077 87.552 0 158.536205 70.971077 158.536205 158.523077" fill="#FFFFFF" p-id="1860"></path><path d="M499.528205 547.761231c91.582359 0 165.809231 74.226872 165.809231 165.809231 0 91.556103-74.226872 165.796103-165.809231 165.796102a165.809231 165.809231 0 0 1-149.924102-94.916923 7.273026 7.273026 0 0 1 13.154461-6.222769 151.250051 151.250051 0 0 0 136.782769 86.593641c83.534769 0 151.250051-67.72841 151.250052-151.26318s-67.715282-151.250051-151.250052-151.250051-151.263179 67.715282-151.263179 151.250051a7.273026 7.273026 0 1 1-14.546051 0c0-91.569231 74.24-165.809231 165.80923-165.80923z" fill="#000000" p-id="1861"></path><path d="M583.181128 713.557333a83.639795 83.639795 0 1 1-167.27959 0 83.639795 83.639795 0 0 1 167.27959 0" fill="#E9434D" p-id="1862"></path><path d="M499.528205 622.644513a90.912821 90.912821 0 0 1 30.746257 176.49559 7.273026 7.273026 0 0 1-4.923077-13.692718 76.393026 76.393026 0 0 0-25.810052-148.256821 76.366769 76.366769 0 0 0-32.216615 145.63118 7.273026 7.273026 0 0 1-6.144 13.193846 90.912821 90.912821 0 0 1 38.360615-173.371077z" fill="#000000" p-id="1863"></path><path d="M472.969846 793.23241a7.273026 7.273026 0 0 1 8.756513-5.382564c5.789538 1.378462 11.749744 2.074256 17.814974 2.074257a7.273026 7.273026 0 1 1 0 14.546051 91.293538 91.293538 0 0 1-21.188923-2.481231 7.273026 7.273026 0 0 1-5.382564-8.756513z" fill="#000000" p-id="1864"></path><path d="M942.185026 218.781538a15.753846 15.753846 0 1 1-31.533949 0 15.753846 15.753846 0 0 1 31.533949 0" fill="#378BCB" p-id="1865"></path><path d="M600.339692 1000.658051a15.753846 15.753846 0 1 1-31.533948 0 15.753846 15.753846 0 0 1 31.533948 0M216.221538 741.087179l5.842052 10.646975c1.890462 3.478974 4.765538 6.340923 8.231384 8.244513l10.646975 5.815795-10.633846 5.828923a20.716308 20.716308 0 0 0-8.244513 8.244512l-5.828923 10.633847-5.815795-10.633847a20.781949 20.781949 0 0 0-8.257641-8.244512l-10.633846-5.828923 10.633846-5.815795c3.478974-1.90359 6.354051-4.765538 8.257641-8.244513l5.815795-10.633846z" fill="#E84756" p-id="1866"></path><path d="M600.339692 10.134974l5.828923 10.633847c1.890462 3.478974 4.75241 6.340923 8.231385 8.244512l10.646974 5.828923-10.633846 5.815795a20.716308 20.716308 0 0 0-8.244513 8.257641l-5.828923 10.633846-5.815795-10.633846a20.781949 20.781949 0 0 0-8.257641-8.257641l-10.633846-5.815795 10.633846-5.828923c3.478974-1.90359 6.340923-4.765538 8.257641-8.231384l5.815795-10.646975z" fill="#E9434D" p-id="1867"></path><path d="M190.621538 105.288205l5.815795 10.633846c1.90359 3.492103 4.765538 6.354051 8.244513 8.257641l10.633846 5.815795-10.633846 5.828923a20.768821 20.768821 0 0 0-8.244513 8.244513l-5.828923 10.633846-5.815795-10.633846a20.703179 20.703179 0 0 0-8.244512-8.244513l-10.646975-5.828923 10.633846-5.815795c3.492103-1.90359 6.354051-4.765538 8.257641-8.244513l5.815795-10.646974z" fill="#FCFCFC" p-id="1868"></path><path d="M108.17641 471.250051a27.096615 27.096615 0 1 0 0.013128 54.193231 27.096615 27.096615 0 0 0 0-54.193231z m0 14.546052a12.550564 12.550564 0 1 1 0 25.101128 12.550564 12.550564 0 0 1 0-25.101128z" fill="#3B84C5" p-id="1869"></path></svg>