<?xml version="1.0" standalone="no"?><!DOCTYPE svg PUBLIC "-//W3C//DTD SVG 1.1//EN" "http://www.w3.org/Graphics/SVG/1.1/DTD/svg11.dtd"><svg t="1609903314881" class="icon" viewBox="0 0 1024 1024" version="1.1" xmlns="http://www.w3.org/2000/svg" p-id="1178" xmlns:xlink="http://www.w3.org/1999/xlink" width="200" height="200"><defs><style type="text/css"></style></defs><path d="M515.426462 691.331282c-58.578051 0-106.062769-17.893744-106.06277-39.988513 0-22.107897 47.484718-40.014769 106.075898-40.014769 58.564923 0 106.062769 17.906872 106.062769 40.014769 0 22.094769-47.497846 40.001641-106.075897 40.001641m0-470.317948c-187.195077 0-338.944 151.748923-338.944 338.944 0 187.208205 151.762051 338.944 338.944 338.944 187.208205 0 338.957128-151.748923 338.957128-338.944 0-187.208205-151.762051-338.944-338.957128-338.944" fill="#3C87C8" p-id="1179"></path><path d="M515.426462 221.026462c-13.220103 0-26.25641 0.827077-39.082667 2.310564 168.763077 19.390359 299.848205 162.67159 299.848205 336.633436 0 173.974974-131.085128 317.243077-299.848205 336.633435 12.826256 1.483487 25.862564 2.310564 39.082667 2.310565 187.208205 0 338.957128-151.748923 338.957128-338.944 0-187.208205-151.762051-338.944-338.957128-338.944" fill="#15639F" p-id="1180"></path><path d="M169.61641 439.296l2.980103-8.664615L444.652308 600.746667a261.605744 261.605744 0 0 1 52.565333-5.080616c62.358974 0 113.335795 19.219692 113.335795 47.261539 0 15.491282-15.071179 28.120615-39.936 36.575179l177.401436 110.933334-6.485334 6.459076a345.114256 345.114256 0 0 1-244.315897 100.903385c-191.212308 0-346.217026-155.004718-346.217026-346.230154 0-36.811487 5.737026-72.861538 16.896-107.139282l1.706667-5.133128z m10.909539 13.45641l-0.498872 1.601641a331.605333 331.605333 0 0 0-14.467282 97.214359c0 183.190974 148.48 331.684103 331.670974 331.684103a330.436923 330.436923 0 0 0 221.617231-84.900103l3.150769-2.888205 2.665026-2.494359-173.095385-108.228923-3.439589 0.722051c-12.603077 2.507487-26.335179 4.069744-40.631795 4.568616l-5.382564 0.131282-4.883693 0.052513c-61.387487 0-111.773538-18.642051-113.29641-46.224411l-0.039385-1.299692 0.052513-1.299692c0.971487-14.336 14.926769-26.085744 37.362872-34.172718l2.284308-0.787693 1.746051-0.603897-244.814769-153.074872z m316.70482-247.401025c191.212308 0 346.217026 155.004718 346.217026 346.217025 0 46.95959-9.36041 92.606359-27.267282 134.918564l-2.021744 4.68677-3.21641 7.273025L205.718974 364.530872l4.46359-6.590359c63.986872-94.680615 170.614154-152.589128 287.048205-152.589128z m0 14.546051c-106.338462 0-204.117333 50.412308-266.134974 133.684513l-2.310564 3.137641-2.021744 2.809436 577.194667 318.437743 0.695795-1.667282a330.305641 330.305641 0 0 0 24.103384-114.54359l0.105026-5.185641 0.039385-4.988718c0-183.190974-148.48-331.684103-331.670975-331.684102z m-55.217231 396.340513c-25.901949 6.235897-41.944615 16.357744-43.454359 25.074872l-0.091897 0.827076-0.026256 0.787693c0 16.147692 43.979487 32.741744 98.789743 32.741743 12.471795 0 24.628513-0.840205 35.958154-2.428718l-91.175385-56.989538z m55.217231-6.038975c-9.032205 0-17.880615 0.446359-26.374564 1.286564l-5.041231 0.551385-2.56 0.341333 90.899693 56.832 2.008615-0.525128c23.525744-6.209641 37.979897-15.648821 39.686564-24.077128l0.131282-0.840205 0.039385-0.827077c0-16.147692-43.979487-32.728615-98.789744-32.728615z" fill="#000000" p-id="1181"></path><path d="M673.161846 239.786667c0 87.04-110.316308 387.912205-164.864 387.912205-54.547692 0-164.850872-300.872205-164.850872-387.912205 0-87.026872 77.824-157.590974 164.850872-157.590975 87.04 0 164.864 70.564103 164.864 157.590975" fill="#E8434B" p-id="1182"></path><path d="M581.041231 271.307487a80.003282 80.003282 0 1 1-160.019693 0 80.003282 80.003282 0 0 1 160.019693 0" fill="#EAD725" p-id="1183"></path><path d="M497.230769 61.098667c-92.343795 0-172.137026 75.014564-172.137025 164.864 0 42.692923 25.757538 136.402051 60.822974 225.069948l1.667282 4.227282c40.356103 100.982154 79.885128 165.888 109.646769 165.888 29.748513 0 69.290667-64.905846 109.633641-165.888l3.347693-8.454564c34.212103-87.40759 59.155692-178.83241 59.155692-220.842666 0-89.849436-79.793231-164.864-172.137026-164.864z m0 14.546051c84.493128 0 157.590974 68.713026 157.590975 150.317949 0 95.730872-113.821538 380.639179-157.590975 380.639179-43.769436 0-157.590974-284.908308-157.590974-380.639179 0-81.604923 73.084718-150.317949 157.590974-150.317949z" fill="#000000" p-id="1184"></path><path d="M407.473231 140.550564a7.273026 7.273026 0 1 1 9.189743 11.277128c-29.801026 24.339692-48.141128 54.770872-50.806153 92.120616a7.273026 7.273026 0 0 1-14.519795-1.037129c2.980103-41.721436 23.433846-75.657846 56.136205-102.360615zM481.437538 100.680205a7.273026 7.273026 0 0 1 4.030359 13.96841l-2.940718 0.945231-3.150769 1.089641a228.732718 228.732718 0 0 0-33.529436 15.399385 7.273026 7.273026 0 0 1-7.128615-12.694975 243.2 243.2 0 0 1 37.52041-17.014153l4.148513-1.378462 1.050256-0.315077zM233.419487 404.453744a7.273026 7.273026 0 1 1 12.51118 7.417435c-19.639795 33.096205-26.427077 67.990974-16.108308 103.975385a7.273026 7.273026 0 0 1-13.994667 4.004103c-11.513436-40.198564-3.95159-79.097436 17.591795-115.396923zM289.214359 341.595897a7.273026 7.273026 0 0 1 8.572718 11.749744l-2.441846 1.890462-2.586257 2.113641a228.798359 228.798359 0 0 0-26.203897 25.967589 7.273026 7.273026 0 1 1-11.027692-9.465436 243.265641 243.265641 0 0 1 29.367794-28.868923l1.378462-1.115897c1.365333-1.089641 2.363077-1.837949 2.92759-2.258051zM416.794256 676.246974c3.72841 0 6.80041 2.809436 7.220513 6.432821l0.052513 0.840205v75.841641a7.273026 7.273026 0 0 1-14.506667 0.840205l-0.039384-0.840205v-75.841641c0-4.017231 3.255795-7.273026 7.273025-7.273026zM454.065231 676.246974c3.72841 0 6.80041 2.809436 7.220513 6.432821l0.052512 0.840205v32.203487a7.273026 7.273026 0 0 1-14.493538 0.840205l-0.052513-0.840205v-32.203487c0-4.017231 3.255795-7.273026 7.273026-7.273026zM454.065231 732.081231c3.72841 0 6.80041 2.809436 7.220513 6.43282l0.052512 0.840205v40.001641a7.273026 7.273026 0 0 1-14.493538 0.853334l-0.052513-0.853334v-40.001641c0-4.017231 3.255795-7.273026 7.273026-7.273025zM530.432 679.358359c3.72841 0 6.80041 2.809436 7.220513 6.43282l0.052513 0.840206v18.182564a7.273026 7.273026 0 0 1-14.493539 0.840205l-0.052513-0.840205v-18.182564c0-4.017231 3.255795-7.273026 7.273026-7.273026zM554.075897 679.358359c3.72841 0 6.80041 2.809436 7.220513 6.43282l0.052513 0.840206v52.722871a7.273026 7.273026 0 0 1-14.506667 0.853334l-0.039384-0.853334v-52.722871c0-4.017231 3.255795-7.273026 7.273025-7.273026zM583.154872 670.956308c3.741538 0 6.813538 2.809436 7.233641 6.43282l0.052513 0.840205v81.132308a7.273026 7.273026 0 0 1-14.506667 0.840205l-0.039385-0.840205v-81.132308c0-4.017231 3.255795-7.273026 7.273026-7.273025zM614.071795 752.088615c3.72841 0 6.813538 2.809436 7.220513 6.432821l0.052513 0.840205v15.451897a7.273026 7.273026 0 0 1-14.493539 0.853334l-0.052513-0.853334v-15.451897c0-4.017231 3.255795-7.273026 7.273026-7.273026z" fill="#F2F2F2" p-id="1185"></path><path d="M74.975179 809.458872a15.753846 15.753846 0 1 1 31.520821 0 15.753846 15.753846 0 0 1-31.507692 0" fill="#378BCB" p-id="1186"></path><path d="M416.820513 27.582359a15.753846 15.753846 0 1 1 31.507692 0 15.753846 15.753846 0 0 1-31.507692 0M800.925538 287.140103l-5.828923-10.633847a20.703179 20.703179 0 0 0-8.244512-8.244512l-10.633847-5.828923 10.633847-5.828924c3.478974-1.890462 6.354051-4.765538 8.244512-8.244512l5.828923-10.633847 5.828924 10.633847c1.890462 3.478974 4.765538 6.354051 8.231384 8.244512l10.646975 5.828924-10.633847 5.828923a20.703179 20.703179 0 0 0-8.244512 8.231384l-5.828924 10.646975z" fill="#E84756" p-id="1187"></path><path d="M416.820513 1018.105436l-5.815795-10.633846a20.768821 20.768821 0 0 0-8.244513-8.257641l-10.660102-5.815795 10.660102-5.828923c3.465846-1.90359 6.340923-4.765538 8.244513-8.244513l5.815795-10.646974 5.828923 10.646974c1.890462 3.478974 4.765538 6.340923 8.231385 8.244513l10.660102 5.828923-10.660102 5.815795a20.703179 20.703179 0 0 0-8.231385 8.244513l-5.828923 10.646974zM826.551795 922.952205l-5.828923-10.646974a20.742564 20.742564 0 0 0-8.244513-8.244513l-10.633846-5.828923 10.633846-5.828923c3.478974-1.890462 6.340923-4.765538 8.244513-8.231385l5.828923-10.646974 5.815795 10.633846c1.90359 3.478974 4.765538 6.354051 8.244513 8.244513l10.646974 5.828923-10.633846 5.828923a20.742564 20.742564 0 0 0-8.257641 8.244513l-5.815795 10.633846z" fill="#FCFCFC" p-id="1188"></path><path d="M908.983795 502.797128a27.109744 27.109744 0 1 0 0 54.206359 27.109744 27.109744 0 0 0 0-54.219487z m0 14.546051a12.563692 12.563692 0 1 1-0.013128 25.114257 12.563692 12.563692 0 0 1 0-25.114257z" fill="#3B84C5" p-id="1189"></path></svg>