<?xml version="1.0" standalone="no"?><!DOCTYPE svg PUBLIC "-//W3C//DTD SVG 1.1//EN" "http://www.w3.org/Graphics/SVG/1.1/DTD/svg11.dtd"><svg t="1609904906457" class="icon" viewBox="0 0 1024 1024" version="1.1" xmlns="http://www.w3.org/2000/svg" p-id="865" xmlns:xlink="http://www.w3.org/1999/xlink" width="200" height="200"><defs><style type="text/css"></style></defs><path d="M956.8 313.6l-368-262.4c-48-32-108.8-32-156.8 0L67.2 313.6c-22.4 16-35.2 38.4-35.2 64 0 44.8 35.2 80 80 80h25.6V864c0 73.6 60.8 134.4 134.4 134.4h476.8c73.6 0 134.4-60.8 134.4-134.4V460.8h25.6c25.6 0 51.2-12.8 64-35.2 28.8-35.2 22.4-86.4-16-112zM483.2 774.4c0 32-25.6 60.8-60.8 60.8h-60.8c-32 0-60.8-25.6-60.8-60.8v-60.8c0-32 25.6-60.8 60.8-60.8h60.8c32 0 60.8 25.6 60.8 60.8v60.8z m236.8 0c0 32-25.6 60.8-60.8 60.8h-60.8c-32 0-60.8-25.6-60.8-60.8v-60.8c0-32 25.6-60.8 60.8-60.8h60.8c32 0 60.8 25.6 60.8 60.8v60.8z m0-240c0 32-25.6 60.8-60.8 60.8h-60.8c-32 0-60.8-25.6-60.8-60.8v-60.8c0-32 25.6-60.8 60.8-60.8h60.8c32 0 60.8 25.6 60.8 60.8v60.8z" fill="#FB822F" p-id="866"></path></svg>