<?xml version="1.0" standalone="no"?><!DOCTYPE svg PUBLIC "-//W3C//DTD SVG 1.1//EN" "http://www.w3.org/Graphics/SVG/1.1/DTD/svg11.dtd"><svg t="1609904930384" class="icon" viewBox="0 0 1024 1024" version="1.1" xmlns="http://www.w3.org/2000/svg" p-id="1298" xmlns:xlink="http://www.w3.org/1999/xlink" width="200" height="200"><defs><style type="text/css"></style></defs><path d="M113.523 121.108H56.761C25.541 121.108 0 95.567 0 64.346S25.54 7.585 56.761 7.585h56.762c31.22 0 56.761 25.54 56.761 56.761s-25.54 56.762-56.761 56.762zM889.205 792.05H260.489c-31.22 0-56.761-25.54-56.761-56.761s25.54-56.762 56.761-56.762h628.716c31.22 0 56.761 25.541 56.761 56.762s-25.54 56.761-56.761 56.761z" fill="#FF5500" p-id="1299"></path><path d="M205.103 747.495L57.75 76.587C51.047 46.107 70.52 15.663 101 8.96c30.516-6.667 60.925 12.77 67.627 43.286l147.355 670.907c6.702 30.48-12.77 60.925-43.25 67.627-30.48 6.703-60.925-12.77-67.628-43.285zM233.819 931.29a85.125 85.125 0 1 0 170.25 0 85.125 85.125 0 1 0-170.25 0zM680.785 931.29a85.125 85.125 0 1 0 170.25 0 85.125 85.125 0 1 0-170.25 0z" fill="#FF5500" p-id="1300"></path><path d="M994.72 154.762H154.41c-16.087 0-7.056 17.71-7.056 39.37l78.21 388.158c0 21.66 13.159 39.37 29.28 39.37H890.44c16.087 0 24.06-18.344 29.28-39.37 24.025-97.154 104.246-388.158 104.246-388.158 0.035-21.66-13.159-39.37-29.245-39.37zM701.67 441.533l-97.225 109.89c-13.088 14.816-36.195 14.816-49.283 0l-97.225-109.89c-18.767-21.237-3.704-54.715 24.66-54.715h40.462v-116.24c0-31.22 25.541-56.761 56.762-56.761s56.761 25.54 56.761 56.761v116.275h40.464c28.328 0 43.426 33.443 24.623 54.68z" fill="#FF5500" p-id="1301"></path></svg>