<?xml version="1.0" standalone="no"?><!DOCTYPE svg PUBLIC "-//W3C//DTD SVG 1.1//EN" "http://www.w3.org/Graphics/SVG/1.1/DTD/svg11.dtd"><svg t="1609904922937" class="icon" viewBox="0 0 1024 1024" version="1.1" xmlns="http://www.w3.org/2000/svg" p-id="1155" xmlns:xlink="http://www.w3.org/1999/xlink" width="200" height="200"><defs><style type="text/css"></style></defs><path d="M807.467 452.31c30.336 194.623-74.539 280.98-74.539 280.98-104.875 117.995-262.55 88.811-262.55 88.811-117.631-19.456-173.397-86.378-173.397-86.378-80.042-68.118-88.533-192.192-88.533-192.192-7.083-91.67 40.021-172.587 40.021-172.587 39.403-72.896 111.616-115.712 111.616-115.712 103.147-58.39 223.062-30.4 223.062-30.4l47.296-46.23c-84.886-35.285-198.87-13.375-198.87-13.375C295.765 187.115 216.96 305.109 216.96 305.109c-99.456 141.12-63.083 284.651-63.083 284.651C190.272 763.712 332.14 841.557 332.14 841.557c184.32 100.95 339.541 9.728 339.541 9.728C828.096 772.224 864.47 620.16 864.47 620.16c32.746-111.915-8.491-216.533-8.491-216.533l-48.491 48.682z m-275.478 5.333l-0.064 0.042a32.597 32.597 0 0 0 8.47 49.366 32.384 32.384 0 0 0 38.485-4.48l0.064 0.042 131.03-130.304 83.967 5.632L933.91 234.155l-120.917-12.352L800.64 96 655.083 236.416l6.72 87.616-126.934 130.624a29.478 29.478 0 0 0-2.901 2.987zM512 1024C229.227 1024 0 794.773 0 512S229.227 0 512 0s512 229.227 512 512-229.227 512-512 512z m32.341-651.99c-117.61-10.943-158.848 66.902-158.848 66.902-67.904 115.563 21.824 194.645 21.824 194.645 120.043 81.494 203.734 7.296 203.734 7.296 80.021-57.173 48.49-162.026 48.49-162.026l-58.197 61.056c-6.059 21.888-21.824 41.365-21.824 41.365-50.944 60.8-118.827 15.808-118.827 15.808-48.512-29.205-38.826-94.443-38.826-94.443 14.549-62.805 67.904-68.565 67.904-68.565l54.57-62.037z" fill="#FEB315" p-id="1156"></path></svg>